<svg xmlns="http://www.w3.org/2000/svg" xmlns:xlink="http://www.w3.org/1999/xlink" width="500" zoomAndPan="magnify" viewBox="0 0 375 374.999991" height="500" preserveAspectRatio="xMidYMid meet" version="1.0"><defs><clipPath id="bd623aa25d"><path d="M 22.570312 22.570312 L 352.570312 22.570312 L 352.570312 352.570312 L 22.570312 352.570312 Z M 22.570312 22.570312 " clip-rule="nonzero"/></clipPath><clipPath id="c5f3579ec0"><path d="M 126.023438 116.691406 L 249 116.691406 L 249 242.691406 L 126.023438 242.691406 Z M 126.023438 116.691406 " clip-rule="nonzero"/></clipPath></defs><g clip-path="url(#bd623aa25d)"><path fill="#22c55d" d="M 187.289062 352.191406 C 158.660156 352.191406 129.847656 352.335938 101.136719 352.191406 C 98.925781 352.203125 96.722656 352.117188 94.519531 351.9375 C 92.316406 351.761719 90.128906 351.488281 87.949219 351.125 C 85.769531 350.761719 83.609375 350.304688 81.46875 349.757812 C 79.328125 349.210938 77.214844 348.570312 75.128906 347.84375 C 73.042969 347.117188 70.992188 346.304688 68.976562 345.402344 C 66.957031 344.503906 64.984375 343.515625 63.050781 342.449219 C 61.117188 341.378906 59.230469 340.230469 57.394531 339.003906 C 55.558594 337.773438 53.777344 336.46875 52.050781 335.089844 C 50.328125 333.710938 48.664062 332.261719 47.0625 330.738281 C 45.457031 329.21875 43.921875 327.632812 42.457031 325.980469 C 40.988281 324.328125 39.59375 322.621094 38.269531 320.851562 C 36.949219 319.078125 35.703125 317.257812 34.535156 315.382812 C 33.367188 313.507812 32.28125 311.585938 31.277344 309.617188 C 30.269531 307.652344 29.351562 305.644531 28.515625 303.597656 C 27.683594 301.554688 26.9375 299.476562 26.277344 297.367188 C 25.621094 295.257812 25.050781 293.125 24.574219 290.96875 C 23.371094 285.734375 22.75 280.429688 22.714844 275.058594 C 22.589844 216.738281 22.46875 158.496094 22.714844 100.09375 C 22.726562 98.839844 22.773438 97.585938 22.847656 96.332031 C 22.925781 95.078125 23.03125 93.828125 23.164062 92.578125 C 23.300781 91.332031 23.464844 90.085938 23.664062 88.847656 C 23.859375 87.605469 24.085938 86.371094 24.339844 85.140625 C 24.59375 83.914062 24.878906 82.691406 25.195312 81.476562 C 25.507812 80.257812 25.851562 79.050781 26.226562 77.851562 C 26.597656 76.652344 27 75.464844 27.429688 74.285156 C 27.859375 73.105469 28.320312 71.9375 28.804688 70.78125 C 29.292969 69.621094 29.808594 68.476562 30.347656 67.34375 C 30.890625 66.210938 31.460938 65.09375 32.054688 63.988281 C 32.652344 62.882812 33.273438 61.792969 33.921875 60.71875 C 34.570312 59.644531 35.246094 58.585938 35.945312 57.542969 C 36.644531 56.5 37.371094 55.476562 38.121094 54.46875 C 38.871094 53.460938 39.640625 52.472656 40.441406 51.503906 C 41.238281 50.53125 42.058594 49.582031 42.898438 48.652344 C 43.742188 47.722656 44.609375 46.8125 45.496094 45.921875 C 46.382812 45.035156 47.289062 44.167969 48.21875 43.324219 C 49.148438 42.476562 50.097656 41.65625 51.066406 40.855469 C 52.035156 40.058594 53.019531 39.28125 54.027344 38.53125 C 55.03125 37.78125 56.054688 37.054688 57.097656 36.351562 C 58.136719 35.652344 59.195312 34.972656 60.269531 34.324219 C 61.34375 33.671875 62.433594 33.046875 63.535156 32.449219 C 64.640625 31.851562 65.757812 31.28125 66.890625 30.738281 C 68.019531 30.191406 69.164062 29.675781 70.320312 29.1875 C 71.476562 28.699219 72.644531 28.238281 73.824219 27.804688 C 75.003906 27.371094 76.191406 26.96875 77.390625 26.59375 C 78.585938 26.21875 79.792969 25.871094 81.007812 25.554688 C 82.222656 25.238281 83.445312 24.953125 84.675781 24.695312 C 85.902344 24.4375 87.136719 24.207031 88.378906 24.011719 C 89.617188 23.8125 90.859375 23.644531 92.109375 23.507812 C 93.355469 23.367188 94.609375 23.261719 95.859375 23.183594 C 97.113281 23.105469 98.367188 23.058594 99.625 23.039062 C 158.082031 22.753906 216.539062 22.753906 274.996094 23.039062 C 276.25 23.058594 277.503906 23.105469 278.757812 23.183594 C 280.011719 23.257812 281.261719 23.367188 282.507812 23.503906 C 283.753906 23.640625 285 23.808594 286.238281 24.007812 C 287.476562 24.203125 288.710938 24.433594 289.9375 24.691406 C 291.167969 24.945312 292.386719 25.234375 293.601562 25.550781 C 294.816406 25.867188 296.023438 26.210938 297.21875 26.585938 C 298.417969 26.960938 299.605469 27.363281 300.785156 27.796875 C 301.960938 28.226562 303.128906 28.6875 304.285156 29.175781 C 305.441406 29.664062 306.585938 30.179688 307.714844 30.722656 C 308.847656 31.269531 309.964844 31.839844 311.066406 32.4375 C 312.171875 33.035156 313.261719 33.65625 314.332031 34.308594 C 315.40625 34.957031 316.464844 35.632812 317.503906 36.335938 C 318.546875 37.035156 319.566406 37.761719 320.574219 38.511719 C 321.578125 39.261719 322.566406 40.035156 323.535156 40.835938 C 324.503906 41.632812 325.453125 42.453125 326.378906 43.296875 C 327.308594 44.144531 328.214844 45.007812 329.101562 45.898438 C 329.988281 46.785156 330.855469 47.691406 331.699219 48.621094 C 332.539062 49.550781 333.359375 50.503906 334.15625 51.472656 C 334.953125 52.441406 335.726562 53.429688 336.476562 54.433594 C 337.226562 55.441406 337.949219 56.464844 338.648438 57.507812 C 339.351562 58.550781 340.023438 59.609375 340.671875 60.683594 C 341.320312 61.757812 341.945312 62.84375 342.539062 63.949219 C 343.136719 65.054688 343.703125 66.171875 344.246094 67.304688 C 344.789062 68.433594 345.304688 69.578125 345.789062 70.734375 C 346.277344 71.894531 346.734375 73.058594 347.164062 74.238281 C 347.597656 75.417969 347.996094 76.605469 348.371094 77.804688 C 348.742188 79.003906 349.085938 80.210938 349.402344 81.425781 C 349.71875 82.640625 350.003906 83.859375 350.257812 85.089844 C 350.511719 86.316406 350.738281 87.550781 350.933594 88.792969 C 351.132812 90.03125 351.296875 91.273438 351.433594 92.519531 C 351.570312 93.769531 351.675781 95.019531 351.75 96.273438 C 351.828125 97.523438 351.871094 98.777344 351.886719 100.03125 C 352.132812 158.328125 352.132812 216.640625 351.886719 274.976562 C 351.871094 276.230469 351.824219 277.488281 351.75 278.738281 C 351.675781 279.992188 351.566406 281.242188 351.429688 282.492188 C 351.296875 283.742188 351.128906 284.984375 350.933594 286.226562 C 350.738281 287.464844 350.511719 288.699219 350.253906 289.929688 C 350 291.160156 349.714844 292.378906 349.398438 293.597656 C 349.082031 294.8125 348.738281 296.019531 348.367188 297.21875 C 347.992188 298.417969 347.589844 299.605469 347.160156 300.785156 C 346.730469 301.964844 346.273438 303.132812 345.785156 304.289062 C 345.296875 305.449219 344.785156 306.59375 344.242188 307.726562 C 343.699219 308.859375 343.128906 309.976562 342.535156 311.082031 C 341.9375 312.1875 341.316406 313.277344 340.667969 314.351562 C 340.019531 315.425781 339.34375 316.484375 338.644531 317.527344 C 337.945312 318.570312 337.21875 319.597656 336.46875 320.605469 C 335.722656 321.609375 334.949219 322.601562 334.152344 323.570312 C 333.355469 324.539062 332.535156 325.492188 331.691406 326.421875 C 330.847656 327.351562 329.984375 328.261719 329.097656 329.152344 C 328.210938 330.039062 327.300781 330.90625 326.375 331.753906 C 325.445312 332.597656 324.496094 333.417969 323.527344 334.21875 C 322.558594 335.019531 321.574219 335.792969 320.566406 336.546875 C 319.5625 337.296875 318.539062 338.023438 317.496094 338.726562 C 316.457031 339.429688 315.398438 340.105469 314.324219 340.757812 C 313.25 341.410156 312.164062 342.035156 311.058594 342.632812 C 309.957031 343.230469 308.839844 343.800781 307.707031 344.347656 C 306.574219 344.890625 305.433594 345.410156 304.277344 345.898438 C 303.121094 346.390625 301.953125 346.851562 300.773438 347.285156 C 299.59375 347.71875 298.40625 348.121094 297.210938 348.496094 C 296.011719 348.875 294.804688 349.21875 293.589844 349.539062 C 292.375 349.855469 291.152344 350.144531 289.925781 350.402344 C 288.695312 350.660156 287.460938 350.890625 286.222656 351.089844 C 284.984375 351.289062 283.738281 351.457031 282.492188 351.597656 C 281.242188 351.738281 279.992188 351.847656 278.738281 351.925781 C 277.488281 352.003906 276.230469 352.050781 274.976562 352.070312 C 245.753906 352.355469 216.511719 352.070312 187.289062 352.070312 Z M 108.96875 290.210938 C 117.730469 288.691406 126.289062 286.425781 134.652344 283.40625 C 143.015625 280.386719 151.050781 276.664062 158.761719 272.238281 C 160.511719 271.238281 162.386719 270.859375 164.386719 271.089844 C 176.132812 273.207031 187.945312 273.691406 199.824219 272.542969 C 225.714844 269.824219 248.800781 260.640625 268.023438 242.832031 C 284.855469 227.246094 295.261719 208.210938 296.777344 185.039062 C 298.574219 157.167969 287.859375 134.203125 267.636719 115.511719 C 248.390625 97.761719 225.242188 88.4375 199.292969 86.207031 C 164.386719 83.203125 132.957031 92.015625 106.65625 115.820312 C 89.644531 131.277344 79.296875 150.441406 77.804688 173.648438 C 75.882812 203.75 88.375 227.65625 111.015625 246.574219 C 117.515625 251.992188 124.941406 256.304688 132.136719 261.277344 C 126.902344 272.195312 118.191406 280.824219 108.96875 290.210938 Z M 108.96875 290.210938 " fill-opacity="1" fill-rule="nonzero"/></g><path fill="#ffffff" d="M 108.96875 290.210938 C 118.191406 280.804688 126.902344 272.175781 132.136719 261.234375 C 124.941406 256.265625 117.515625 251.949219 111.015625 246.53125 C 88.375 227.636719 75.882812 203.730469 77.804688 173.648438 C 79.296875 150.460938 89.644531 131.300781 106.65625 115.921875 C 132.957031 92.117188 164.386719 83.304688 199.292969 86.3125 C 225.242188 88.539062 248.371094 97.863281 267.636719 115.613281 C 287.859375 134.246094 298.574219 157.207031 296.777344 185.144531 C 295.261719 208.3125 284.855469 227.351562 268.023438 242.933594 C 248.800781 260.742188 225.714844 269.925781 199.824219 272.644531 C 187.945312 273.792969 176.132812 273.308594 164.386719 271.195312 C 162.386719 270.960938 160.511719 271.339844 158.761719 272.339844 C 151.050781 276.746094 143.011719 280.453125 134.648438 283.453125 C 126.285156 286.457031 117.726562 288.707031 108.96875 290.210938 Z M 108.96875 290.210938 " fill-opacity="1" fill-rule="nonzero"/><g clip-path="url(#c5f3579ec0)"><path fill="#22c55d" d="M 184.488281 156.402344 C 186.003906 156.367188 187.453125 156.074219 188.710938 155.546875 C 188.710938 155.550781 188.714844 155.550781 188.71875 155.550781 C 188.875 155.636719 189.011719 155.707031 189.144531 155.769531 L 189.253906 155.816406 C 189.566406 155.945312 189.84375 156.0625 190.085938 156.171875 C 190.015625 156.222656 189.9375 156.273438 189.859375 156.328125 L 189.828125 156.347656 C 189.273438 156.722656 188.53125 157.140625 187.628906 157.589844 C 186.761719 158.015625 185.8125 158.464844 184.734375 158.960938 C 184.664062 158.992188 184.597656 159.023438 184.527344 159.054688 Z M 184.941406 187.859375 C 184.957031 187.867188 184.96875 187.871094 184.984375 187.878906 C 185.960938 188.304688 186.972656 188.742188 187.898438 189.1875 C 188.710938 189.578125 189.367188 189.929688 189.898438 190.253906 L 189.863281 192.757812 C 189.359375 193.109375 188.753906 193.480469 188.027344 193.882812 C 187.15625 194.363281 186.21875 194.839844 185.171875 195.363281 L 185.101562 195.398438 C 185.085938 195.40625 185.070312 195.414062 185.054688 195.425781 Z M 189.6875 204.769531 L 189.554688 213.96875 C 189.480469 213.929688 189.402344 213.890625 189.328125 213.851562 C 188.273438 213.3125 187.332031 212.828125 186.449219 212.328125 C 186.015625 212.085938 185.632812 211.855469 185.289062 211.636719 L 185.21875 206.828125 C 185.621094 206.605469 186.078125 206.375 186.605469 206.128906 C 187.554688 205.679688 188.574219 205.246094 189.5625 204.824219 C 189.601562 204.808594 189.648438 204.789062 189.6875 204.769531 Z M 190.183594 170.644531 L 190.089844 177.085938 C 190.085938 177.085938 190.085938 177.085938 190.082031 177.082031 L 190.007812 177.046875 C 188.964844 176.53125 188.03125 176.066406 187.167969 175.597656 C 186.25 175.09375 185.542969 174.652344 185.003906 174.246094 C 184.90625 174.171875 184.820312 174.105469 184.742188 174.039062 L 184.734375 173.539062 C 184.839844 173.460938 184.953125 173.375 185.089844 173.285156 C 185.628906 172.910156 186.339844 172.503906 187.257812 172.039062 C 188.113281 171.617188 189.027344 171.1875 189.996094 170.734375 Z M 200.78125 155.210938 C 200.765625 155.472656 200.730469 155.734375 200.679688 156.003906 C 200.65625 156.140625 200.625 156.269531 200.585938 156.417969 C 200.574219 156.46875 200.558594 156.527344 200.542969 156.585938 C 200.53125 156.855469 200.515625 157.125 200.488281 157.394531 C 200.449219 157.628906 200.410156 157.863281 200.363281 158.097656 C 200.316406 158.332031 200.277344 158.570312 200.199219 158.792969 C 200.128906 159.023438 200.050781 159.25 199.96875 159.472656 C 199.929688 159.585938 199.890625 159.703125 199.84375 159.808594 L 199.691406 160.121094 C 199.589844 160.332031 199.484375 160.539062 199.378906 160.746094 C 199.269531 160.953125 199.144531 161.128906 199.023438 161.320312 C 198.902344 161.507812 198.777344 161.695312 198.648438 161.875 C 198.515625 162.039062 198.382812 162.203125 198.246094 162.367188 C 198.109375 162.523438 197.972656 162.703125 197.835938 162.839844 L 197.410156 163.261719 C 197.125 163.558594 196.84375 163.785156 196.554688 164.039062 C 196.261719 164.296875 195.980469 164.492188 195.691406 164.714844 C 194.535156 165.550781 193.394531 166.191406 192.292969 166.773438 C 191.191406 167.355469 190.109375 167.851562 189.074219 168.339844 C 188.042969 168.824219 187.046875 169.289062 186.121094 169.75 C 185.191406 170.214844 184.335938 170.691406 183.628906 171.179688 C 182.925781 171.664062 182.382812 172.148438 182.101562 172.542969 C 182.070312 172.589844 182.015625 172.640625 181.996094 172.683594 C 181.972656 172.730469 181.949219 172.773438 181.921875 172.816406 L 181.878906 172.882812 C 181.863281 172.902344 181.863281 172.925781 181.855469 172.945312 C 181.839844 172.988281 181.824219 173.027344 181.800781 173.066406 C 181.769531 173.105469 181.773438 173.152344 181.761719 173.195312 C 181.753906 173.238281 181.738281 173.28125 181.722656 173.324219 C 181.710938 173.421875 181.710938 173.523438 181.683594 173.625 C 181.699219 173.722656 181.6875 173.828125 181.6875 173.929688 C 181.699219 173.972656 181.707031 174.019531 181.710938 174.0625 C 181.71875 174.109375 181.707031 174.160156 181.730469 174.199219 C 181.75 174.242188 181.761719 174.289062 181.769531 174.335938 C 181.777344 174.359375 181.777344 174.382812 181.789062 174.40625 L 181.824219 174.476562 C 181.847656 174.523438 181.867188 174.574219 181.886719 174.625 C 181.90625 174.679688 181.957031 174.730469 181.984375 174.785156 C 182.242188 175.222656 182.765625 175.769531 183.46875 176.292969 C 184.171875 176.824219 185.023438 177.339844 185.945312 177.84375 C 186.863281 178.34375 187.851562 178.835938 188.875 179.339844 C 189.902344 179.847656 190.960938 180.371094 192.046875 180.957031 C 193.128906 181.542969 194.238281 182.191406 195.351562 183.015625 C 196.453125 183.839844 197.59375 184.851562 198.527344 186.265625 C 198.640625 186.445312 198.761719 186.609375 198.859375 186.804688 C 198.960938 187 199.0625 187.195312 199.15625 187.390625 L 199.296875 187.6875 C 199.34375 187.785156 199.378906 187.894531 199.417969 188 C 199.492188 188.210938 199.566406 188.421875 199.632812 188.632812 C 199.710938 188.84375 199.746094 189.066406 199.792969 189.285156 C 199.835938 189.503906 199.875 189.722656 199.914062 189.941406 C 199.964844 190.378906 199.976562 190.816406 199.988281 191.25 C 199.957031 191.683594 199.933594 192.117188 199.867188 192.550781 C 199.820312 192.765625 199.773438 192.984375 199.722656 193.199219 C 199.671875 193.414062 199.628906 193.632812 199.542969 193.835938 C 199.382812 194.246094 199.246094 194.675781 199.027344 195.046875 L 198.71875 195.609375 C 198.613281 195.796875 198.484375 195.957031 198.367188 196.125 C 197.40625 197.476562 196.25 198.417969 195.132812 199.175781 C 194.007812 199.929688 192.886719 200.511719 191.789062 201.035156 C 190.6875 201.558594 189.609375 202.023438 188.554688 202.46875 C 187.507812 202.917969 186.484375 203.355469 185.511719 203.8125 C 184.542969 204.273438 183.617188 204.753906 182.8125 205.277344 C 182.007812 205.804688 181.332031 206.378906 180.886719 206.96875 C 180.441406 207.558594 180.203125 208.144531 180.15625 208.875 C 180.121094 209.601562 180.285156 210.238281 180.695312 210.910156 C 181.097656 211.578125 181.757812 212.238281 182.546875 212.847656 C 183.335938 213.457031 184.242188 214.019531 185.191406 214.558594 C 186.144531 215.09375 187.144531 215.609375 188.160156 216.128906 C 189.179688 216.648438 190.214844 217.179688 191.25 217.757812 C 192.285156 218.339844 193.320312 218.96875 194.316406 219.722656 C 195.308594 220.480469 196.273438 221.382812 197.003906 222.546875 C 197.09375 222.695312 197.195312 222.828125 197.269531 222.988281 L 197.496094 223.457031 L 197.605469 223.691406 C 197.640625 223.773438 197.664062 223.859375 197.691406 223.941406 L 197.851562 224.441406 C 197.914062 224.605469 197.933594 224.78125 197.96875 224.953125 L 198.054688 225.46875 C 198.085938 225.8125 198.085938 226.15625 198.097656 226.5 C 198.113281 227.136719 197.613281 227.671875 196.972656 227.6875 C 196.347656 227.707031 195.820312 227.222656 195.785156 226.597656 L 195.777344 226.5 C 195.726562 225.570312 195.394531 224.746094 194.839844 224.015625 C 194.28125 223.289062 193.503906 222.65625 192.636719 222.09375 C 190.886719 220.972656 188.816406 220.125 186.714844 219.242188 C 185.660156 218.800781 184.585938 218.351562 183.507812 217.847656 C 182.425781 217.34375 181.332031 216.785156 180.253906 216.078125 C 179.183594 215.371094 178.105469 214.492188 177.21875 213.269531 C 177.109375 213.113281 176.992188 212.96875 176.894531 212.800781 L 176.613281 212.292969 C 176.410156 211.960938 176.289062 211.574219 176.140625 211.207031 C 176.0625 211.023438 176.027344 210.828125 175.976562 210.632812 L 175.839844 210.050781 C 175.78125 209.660156 175.753906 209.265625 175.722656 208.875 C 175.734375 208.480469 175.742188 208.085938 175.785156 207.6875 L 175.890625 207.09375 C 175.929688 206.894531 175.960938 206.695312 176.03125 206.503906 L 176.222656 205.929688 C 176.257812 205.835938 176.285156 205.738281 176.328125 205.648438 L 176.457031 205.378906 L 176.71875 204.84375 C 176.808594 204.664062 176.921875 204.511719 177.023438 204.347656 C 177.867188 203.042969 178.933594 202.082031 179.984375 201.289062 C 181.046875 200.496094 182.125 199.859375 183.1875 199.273438 C 184.246094 198.691406 185.296875 198.164062 186.320312 197.652344 C 187.339844 197.140625 188.332031 196.640625 189.265625 196.121094 C 190.199219 195.601562 191.078125 195.0625 191.820312 194.5 C 192.5625 193.941406 193.148438 193.34375 193.472656 192.804688 C 193.800781 192.257812 193.90625 191.820312 193.882812 191.246094 C 193.84375 190.675781 193.675781 190.285156 193.316406 189.800781 C 192.960938 189.320312 192.359375 188.796875 191.601562 188.304688 C 190.847656 187.808594 189.957031 187.339844 189.007812 186.882812 C 188.0625 186.425781 187.050781 185.984375 186.003906 185.53125 C 184.953125 185.074219 183.871094 184.601562 182.757812 184.0625 C 181.644531 183.523438 180.5 182.921875 179.332031 182.132812 C 178.175781 181.339844 176.957031 180.351562 175.925781 178.898438 C 175.800781 178.710938 175.667969 178.542969 175.554688 178.339844 C 175.441406 178.136719 175.328125 177.933594 175.21875 177.730469 C 174.988281 177.332031 174.839844 176.867188 174.671875 176.421875 C 174.582031 176.199219 174.535156 175.964844 174.476562 175.730469 C 174.421875 175.496094 174.371094 175.261719 174.324219 175.027344 C 174.253906 174.5625 174.226562 174.09375 174.195312 173.625 C 174.214844 173.15625 174.230469 172.6875 174.289062 172.21875 C 174.328125 171.980469 174.375 171.742188 174.425781 171.507812 C 174.476562 171.273438 174.519531 171.03125 174.601562 170.808594 C 174.675781 170.578125 174.757812 170.351562 174.839844 170.125 C 174.882812 170.011719 174.921875 169.894531 174.96875 169.789062 L 175.125 169.472656 C 175.230469 169.261719 175.335938 169.054688 175.445312 168.847656 C 175.558594 168.636719 175.6875 168.464844 175.808594 168.273438 C 175.933594 168.085938 176.058594 167.898438 176.191406 167.71875 L 176.59375 167.230469 C 176.730469 167.070312 176.867188 166.890625 177.011719 166.753906 L 177.4375 166.332031 C 177.722656 166.035156 178.007812 165.808594 178.296875 165.558594 C 178.589844 165.296875 178.878906 165.105469 179.171875 164.890625 C 180.332031 164.058594 181.472656 163.417969 182.578125 162.839844 C 183.683594 162.261719 184.761719 161.761719 185.804688 161.285156 C 186.839844 160.8125 187.832031 160.34375 188.761719 159.882812 C 189.691406 159.421875 190.550781 158.949219 191.261719 158.464844 C 191.984375 157.992188 192.519531 157.5 192.820312 157.113281 C 192.855469 157.0625 192.910156 157.015625 192.933594 156.96875 C 192.957031 156.921875 192.984375 156.878906 193.015625 156.835938 L 193.0625 156.769531 C 193.078125 156.75 193.082031 156.726562 193.089844 156.707031 C 193.109375 156.664062 193.125 156.621094 193.152344 156.578125 C 193.1875 156.539062 193.1875 156.492188 193.203125 156.449219 C 193.214844 156.402344 193.234375 156.359375 193.253906 156.316406 C 193.273438 156.214844 193.28125 156.105469 193.316406 156 L 193.457031 155 L 193.457031 155.007812 C 193.421875 155.113281 193.425781 155.09375 193.414062 155.121094 C 193.40625 155.144531 193.402344 155.144531 193.394531 155.152344 C 193.386719 155.171875 193.375 155.179688 193.371094 155.1875 C 193.355469 155.203125 193.34375 155.199219 193.332031 155.203125 C 193.308594 155.203125 193.292969 155.199219 193.277344 155.195312 C 193.242188 155.183594 193.214844 155.175781 193.199219 155.175781 C 193.152344 155.179688 193.15625 155.214844 193.140625 155.191406 C 193.136719 155.1875 193.136719 155.1875 193.136719 155.179688 C 193.132812 155.175781 193.125 155.171875 193.121094 155.167969 C 193.121094 155.152344 193.105469 155.136719 193.089844 155.117188 C 193.085938 155.097656 193.054688 155.074219 193.035156 155.046875 C 193.019531 155.019531 192.988281 154.988281 192.953125 154.957031 C 192.824219 154.832031 192.636719 154.660156 192.363281 154.488281 C 191.832031 154.140625 191.066406 153.789062 190.222656 153.449219 C 190.117188 153.398438 190.011719 153.34375 189.90625 153.285156 C 189.796875 153.230469 189.683594 153.167969 189.574219 153.105469 C 189.355469 152.976562 189.132812 152.816406 188.898438 152.652344 C 188.875 152.632812 188.851562 152.617188 188.828125 152.597656 C 187.6875 153.367188 186.027344 153.851562 184.175781 153.851562 C 180.730469 153.851562 177.9375 152.175781 177.9375 150.105469 C 177.9375 148.035156 180.730469 146.359375 184.175781 146.359375 C 186.125 146.359375 187.867188 146.898438 189.011719 147.742188 C 189.070312 147.710938 189.128906 147.683594 189.1875 147.65625 C 189.488281 147.511719 189.800781 147.402344 190.113281 147.320312 C 190.269531 147.28125 190.425781 147.246094 190.585938 147.214844 C 190.742188 147.191406 190.902344 147.171875 191.0625 147.160156 C 191.222656 147.144531 191.382812 147.136719 191.542969 147.132812 L 192.035156 147.148438 C 192.199219 147.15625 192.359375 147.15625 192.527344 147.167969 C 192.695312 147.183594 192.867188 147.195312 193.035156 147.214844 C 193.367188 147.246094 193.722656 147.316406 194.070312 147.375 C 194.242188 147.402344 194.421875 147.460938 194.601562 147.5 C 194.78125 147.550781 194.957031 147.589844 195.140625 147.65625 C 195.324219 147.714844 195.507812 147.773438 195.691406 147.84375 C 195.875 147.914062 196.0625 148 196.246094 148.082031 C 196.433594 148.15625 196.625 148.261719 196.8125 148.363281 L 197.089844 148.519531 L 197.371094 148.699219 C 198.121094 149.183594 198.867188 149.847656 199.472656 150.699219 C 199.785156 151.117188 200.035156 151.597656 200.25 152.085938 C 200.457031 152.585938 200.613281 153.105469 200.699219 153.632812 C 200.789062 154.160156 200.8125 154.6875 200.78125 155.210938 Z M 189.355469 227.632812 C 189.339844 228.691406 188.46875 229.539062 187.410156 229.523438 C 186.371094 229.507812 185.535156 228.664062 185.519531 227.632812 L 185.429688 221.480469 C 185.527344 221.519531 185.628906 221.5625 185.726562 221.601562 L 186.054688 221.742188 C 187.238281 222.238281 188.378906 222.714844 189.421875 223.230469 Z M 187.390625 136.097656 C 189.160156 136.070312 190.613281 137.484375 190.636719 139.25 C 190.636719 139.277344 190.636719 139.316406 190.636719 139.34375 L 190.558594 144.636719 C 190.429688 144.652344 190.304688 144.667969 190.183594 144.6875 L 190.101562 144.703125 C 189.902344 144.742188 189.699219 144.785156 189.484375 144.839844 C 189.402344 144.859375 189.324219 144.882812 189.242188 144.90625 C 187.816406 144.210938 186.089844 143.820312 184.304688 143.804688 L 184.238281 139.34375 C 184.214844 137.574219 185.625 136.125 187.390625 136.097656 Z M 248.910156 157.523438 L 229.382812 129.636719 L 204.519531 147.042969 L 204.519531 116.691406 L 170.472656 116.691406 L 170.472656 147.042969 L 145.609375 129.636719 L 126.082031 157.523438 L 157.816406 179.746094 L 126.082031 201.96875 L 145.609375 229.855469 L 170.472656 212.449219 L 170.472656 242.800781 L 204.519531 242.800781 L 204.519531 212.449219 L 229.382812 229.855469 L 248.910156 201.96875 L 217.175781 179.746094 L 248.910156 157.523438 " fill-opacity="1" fill-rule="nonzero"/></g></svg>