<svg xmlns="http://www.w3.org/2000/svg" xmlns:xlink="http://www.w3.org/1999/xlink" width="500" zoomAndPan="magnify" viewBox="0 0 375 374.999991" height="500" preserveAspectRatio="xMidYMid meet" version="1.0"><defs><clipPath id="46dfe29cce"><path d="M 112.5 112.5 L 262.5 112.5 L 262.5 262.5 L 112.5 262.5 Z M 112.5 112.5 " clip-rule="nonzero"/></clipPath><clipPath id="59afee874e"><path d="M 159.542969 155.300781 L 215.792969 155.300781 L 215.792969 212.300781 L 159.542969 212.300781 Z M 159.542969 155.300781 " clip-rule="nonzero"/></clipPath></defs><rect x="-37.5" width="450" fill="#ffffff" y="-37.499999" height="449.999989" fill-opacity="1"/><rect x="-37.5" width="450" fill="#173d23" y="-37.499999" height="449.999989" fill-opacity="1"/><g clip-path="url(#46dfe29cce)"><path fill="#21793b" d="M 187.40625 262.398438 C 174.386719 262.398438 161.285156 262.460938 148.226562 262.398438 C 147.222656 262.402344 146.222656 262.363281 145.21875 262.28125 C 144.21875 262.199219 143.222656 262.078125 142.230469 261.910156 C 141.238281 261.746094 140.257812 261.539062 139.285156 261.289062 C 138.3125 261.039062 137.351562 260.75 136.402344 260.421875 C 135.453125 260.089844 134.519531 259.71875 133.601562 259.308594 C 132.683594 258.898438 131.785156 258.453125 130.90625 257.964844 C 130.027344 257.480469 129.171875 256.957031 128.335938 256.398438 C 127.5 255.839844 126.691406 255.246094 125.90625 254.621094 C 125.121094 253.992188 124.367188 253.332031 123.636719 252.640625 C 122.910156 251.949219 122.210938 251.226562 121.542969 250.476562 C 120.875 249.726562 120.242188 248.949219 119.640625 248.144531 C 119.039062 247.339844 118.472656 246.511719 117.941406 245.65625 C 117.410156 244.804688 116.914062 243.929688 116.457031 243.035156 C 116 242.140625 115.582031 241.230469 115.203125 240.300781 C 114.824219 239.367188 114.484375 238.425781 114.1875 237.464844 C 113.886719 236.507812 113.628906 235.535156 113.410156 234.554688 C 112.863281 232.175781 112.582031 229.761719 112.566406 227.320312 C 112.507812 200.796875 112.453125 174.3125 112.566406 147.753906 C 112.578125 146.613281 112.648438 145.472656 112.769531 144.335938 C 112.894531 143.199219 113.070312 142.074219 113.304688 140.953125 C 113.535156 139.835938 113.824219 138.730469 114.160156 137.640625 C 114.5 136.550781 114.890625 135.476562 115.335938 134.421875 C 115.777344 133.371094 116.269531 132.339844 116.8125 131.335938 C 117.355469 130.328125 117.945312 129.351562 118.582031 128.402344 C 119.21875 127.457031 119.902344 126.539062 120.625 125.65625 C 121.351562 124.773438 122.117188 123.929688 122.925781 123.121094 C 123.730469 122.3125 124.578125 121.542969 125.457031 120.816406 C 126.339844 120.089844 127.253906 119.40625 128.203125 118.765625 C 129.148438 118.128906 130.125 117.539062 131.128906 116.992188 C 132.132812 116.449219 133.164062 115.953125 134.214844 115.507812 C 135.265625 115.0625 136.339844 114.671875 137.429688 114.328125 C 138.519531 113.988281 139.625 113.699219 140.742188 113.464844 C 141.859375 113.230469 142.988281 113.050781 144.121094 112.925781 C 145.257812 112.800781 146.398438 112.730469 147.539062 112.714844 C 174.125 112.582031 200.707031 112.582031 227.292969 112.714844 C 228.433594 112.730469 229.574219 112.800781 230.707031 112.925781 C 231.84375 113.050781 232.96875 113.230469 234.085938 113.464844 C 235.203125 113.699219 236.308594 113.984375 237.398438 114.328125 C 238.488281 114.667969 239.558594 115.058594 240.613281 115.503906 C 241.664062 115.949219 242.691406 116.441406 243.695312 116.984375 C 244.699219 117.53125 245.675781 118.121094 246.621094 118.757812 C 247.570312 119.398438 248.484375 120.078125 249.363281 120.804688 C 250.246094 121.53125 251.089844 122.300781 251.898438 123.109375 C 252.703125 123.914062 253.46875 124.761719 254.195312 125.644531 C 254.921875 126.523438 255.601562 127.441406 256.238281 128.386719 C 256.875 129.335938 257.464844 130.3125 258.007812 131.316406 C 258.550781 132.320312 259.042969 133.351562 259.484375 134.402344 C 259.929688 135.457031 260.320312 136.527344 260.660156 137.617188 C 261 138.707031 261.285156 139.8125 261.515625 140.929688 C 261.75 142.046875 261.929688 143.175781 262.050781 144.308594 C 262.175781 145.445312 262.246094 146.585938 262.257812 147.726562 C 262.371094 174.234375 262.371094 200.753906 262.257812 227.28125 C 262.246094 228.425781 262.175781 229.566406 262.050781 230.699219 C 261.925781 231.835938 261.75 232.964844 261.515625 234.082031 C 261.285156 235.203125 260.996094 236.304688 260.65625 237.398438 C 260.316406 238.488281 259.925781 239.558594 259.484375 240.613281 C 259.039062 241.667969 258.546875 242.695312 258.003906 243.703125 C 257.460938 244.707031 256.871094 245.683594 256.234375 246.632812 C 255.597656 247.582031 254.917969 248.5 254.191406 249.382812 C 253.46875 250.265625 252.703125 251.109375 251.894531 251.917969 C 251.085938 252.726562 250.242188 253.496094 249.363281 254.222656 C 248.480469 254.953125 247.566406 255.632812 246.621094 256.273438 C 245.671875 256.914062 244.695312 257.503906 243.691406 258.050781 C 242.6875 258.59375 241.660156 259.089844 240.605469 259.535156 C 239.554688 259.980469 238.484375 260.375 237.394531 260.71875 C 236.304688 261.058594 235.199219 261.347656 234.082031 261.582031 C 232.960938 261.820312 231.835938 262 230.699219 262.125 C 229.566406 262.253906 228.425781 262.324219 227.28125 262.34375 C 213.992188 262.472656 200.695312 262.34375 187.40625 262.34375 Z M 151.789062 234.210938 C 159.820312 232.820312 167.367188 230.09375 174.433594 226.035156 C 175.230469 225.582031 176.082031 225.410156 176.992188 225.515625 C 182.332031 226.480469 187.707031 226.699219 193.109375 226.175781 C 204.878906 224.941406 215.378906 220.765625 224.121094 212.664062 C 231.773438 205.578125 236.507812 196.921875 237.195312 186.382812 C 238.015625 173.707031 233.140625 163.265625 223.945312 154.765625 C 215.195312 146.695312 204.667969 142.453125 192.867188 141.441406 C 176.992188 140.074219 162.699219 144.082031 150.738281 154.90625 C 143.003906 161.9375 138.296875 170.648438 137.617188 181.203125 C 136.742188 194.894531 142.425781 205.765625 152.71875 214.367188 C 155.675781 216.832031 159.054688 218.792969 162.328125 221.050781 C 159.945312 226.019531 155.984375 229.941406 151.789062 234.210938 Z M 151.789062 234.210938 " fill-opacity="1" fill-rule="nonzero"/></g><path fill="#ffffff" d="M 151.789062 234.210938 C 155.984375 229.933594 159.945312 226.007812 162.328125 221.035156 C 159.054688 218.773438 155.675781 216.8125 152.71875 214.347656 C 142.425781 205.753906 136.742188 194.882812 137.617188 181.203125 C 138.296875 170.660156 143.003906 161.945312 150.738281 154.953125 C 162.699219 144.128906 176.992188 140.121094 192.867188 141.488281 C 204.667969 142.5 215.183594 146.742188 223.945312 154.8125 C 233.140625 163.285156 238.015625 173.726562 237.195312 186.429688 C 236.507812 196.96875 231.773438 205.625 224.121094 212.710938 C 215.378906 220.8125 204.878906 224.984375 193.109375 226.222656 C 187.707031 226.746094 182.332031 226.523438 176.992188 225.5625 C 176.082031 225.457031 175.230469 225.628906 174.433594 226.082031 C 167.363281 230.125 159.816406 232.832031 151.789062 234.210938 Z M 151.789062 234.210938 " fill-opacity="1" fill-rule="nonzero"/><g clip-path="url(#59afee874e)"><path fill="#21793b" d="M 186.128906 173.359375 C 186.820312 173.339844 187.476562 173.207031 188.050781 172.96875 C 188.050781 172.96875 188.050781 172.96875 188.054688 172.96875 C 188.125 173.007812 188.1875 173.042969 188.246094 173.070312 L 188.273438 173.082031 L 188.296875 173.089844 C 188.441406 173.148438 188.566406 173.203125 188.675781 173.253906 C 188.640625 173.273438 188.609375 173.296875 188.570312 173.324219 L 188.558594 173.332031 C 188.304688 173.503906 187.96875 173.691406 187.558594 173.894531 C 187.164062 174.089844 186.734375 174.296875 186.242188 174.519531 C 186.210938 174.535156 186.179688 174.550781 186.148438 174.5625 Z M 186.335938 187.660156 C 186.34375 187.664062 186.347656 187.667969 186.355469 187.667969 C 186.800781 187.863281 187.257812 188.0625 187.679688 188.265625 C 188.050781 188.441406 188.347656 188.601562 188.589844 188.75 L 188.574219 189.886719 C 188.34375 190.046875 188.070312 190.214844 187.738281 190.398438 C 187.34375 190.617188 186.917969 190.832031 186.441406 191.074219 L 186.410156 191.089844 C 186.402344 191.09375 186.394531 191.097656 186.386719 191.101562 Z M 188.496094 195.347656 L 188.433594 199.53125 C 188.398438 199.515625 188.363281 199.496094 188.328125 199.476562 C 187.851562 199.234375 187.421875 199.011719 187.023438 198.785156 C 186.824219 198.675781 186.652344 198.570312 186.492188 198.472656 L 186.460938 196.285156 C 186.644531 196.183594 186.851562 196.082031 187.089844 195.96875 C 187.523438 195.761719 187.988281 195.566406 188.4375 195.375 C 188.457031 195.367188 188.476562 195.359375 188.496094 195.347656 Z M 188.71875 179.832031 L 188.675781 182.761719 C 188.675781 182.761719 188.675781 182.761719 188.671875 182.761719 L 188.640625 182.742188 C 188.164062 182.507812 187.738281 182.296875 187.347656 182.085938 C 186.929688 181.855469 186.609375 181.65625 186.363281 181.46875 C 186.320312 181.4375 186.28125 181.40625 186.246094 181.375 L 186.242188 181.148438 C 186.289062 181.113281 186.339844 181.074219 186.402344 181.03125 C 186.648438 180.863281 186.972656 180.675781 187.390625 180.46875 C 187.777344 180.273438 188.195312 180.078125 188.632812 179.871094 Z M 193.539062 172.816406 C 193.53125 172.933594 193.515625 173.054688 193.492188 173.175781 C 193.480469 173.238281 193.46875 173.296875 193.449219 173.363281 C 193.445312 173.386719 193.4375 173.414062 193.429688 173.441406 C 193.425781 173.5625 193.417969 173.683594 193.40625 173.808594 C 193.386719 173.914062 193.371094 174.019531 193.347656 174.128906 C 193.328125 174.234375 193.308594 174.34375 193.273438 174.445312 C 193.242188 174.546875 193.207031 174.652344 193.167969 174.753906 C 193.148438 174.804688 193.132812 174.855469 193.113281 174.90625 L 193.042969 175.046875 C 192.996094 175.144531 192.949219 175.238281 192.898438 175.332031 C 192.851562 175.425781 192.792969 175.507812 192.738281 175.59375 C 192.683594 175.679688 192.625 175.765625 192.566406 175.84375 C 192.507812 175.921875 192.449219 175.996094 192.386719 176.070312 C 192.324219 176.140625 192.261719 176.222656 192.199219 176.285156 L 192.007812 176.476562 C 191.875 176.609375 191.746094 176.714844 191.617188 176.828125 C 191.484375 176.945312 191.355469 177.035156 191.222656 177.136719 C 190.699219 177.515625 190.179688 177.808594 189.679688 178.074219 C 189.175781 178.335938 188.6875 178.5625 188.214844 178.785156 C 187.746094 179.003906 187.292969 179.214844 186.871094 179.425781 C 186.449219 179.636719 186.058594 179.855469 185.738281 180.078125 C 185.417969 180.296875 185.171875 180.515625 185.042969 180.695312 C 185.03125 180.71875 185.003906 180.738281 184.996094 180.761719 C 184.984375 180.78125 184.976562 180.800781 184.960938 180.820312 L 184.941406 180.851562 C 184.9375 180.859375 184.9375 180.871094 184.933594 180.878906 C 184.925781 180.898438 184.917969 180.917969 184.90625 180.933594 C 184.894531 180.953125 184.894531 180.972656 184.890625 180.992188 C 184.886719 181.011719 184.878906 181.03125 184.871094 181.050781 C 184.867188 181.09375 184.867188 181.140625 184.855469 181.1875 C 184.859375 181.234375 184.855469 181.28125 184.855469 181.328125 C 184.859375 181.347656 184.863281 181.367188 184.867188 181.386719 C 184.871094 181.410156 184.867188 181.429688 184.875 181.449219 C 184.882812 181.46875 184.890625 181.492188 184.894531 181.511719 C 184.898438 181.523438 184.894531 181.53125 184.902344 181.542969 L 184.917969 181.574219 C 184.929688 181.597656 184.9375 181.621094 184.945312 181.644531 C 184.953125 181.667969 184.976562 181.691406 184.992188 181.714844 C 185.109375 181.914062 185.347656 182.164062 185.667969 182.402344 C 185.984375 182.644531 186.375 182.878906 186.792969 183.105469 C 187.210938 183.335938 187.660156 183.558594 188.125 183.785156 C 188.589844 184.015625 189.074219 184.253906 189.566406 184.523438 C 190.058594 184.789062 190.5625 185.082031 191.070312 185.457031 C 191.570312 185.832031 192.089844 186.292969 192.511719 186.933594 C 192.5625 187.015625 192.621094 187.09375 192.664062 187.179688 C 192.710938 187.269531 192.757812 187.359375 192.800781 187.445312 L 192.863281 187.582031 C 192.886719 187.628906 192.898438 187.675781 192.917969 187.722656 C 192.953125 187.820312 192.984375 187.917969 193.015625 188.011719 C 193.050781 188.109375 193.066406 188.207031 193.089844 188.308594 C 193.109375 188.40625 193.125 188.507812 193.144531 188.609375 C 193.167969 188.804688 193.171875 189.003906 193.179688 189.203125 C 193.164062 189.398438 193.152344 189.597656 193.121094 189.792969 C 193.101562 189.890625 193.082031 189.988281 193.058594 190.089844 C 193.03125 190.1875 193.011719 190.285156 192.976562 190.378906 C 192.902344 190.566406 192.839844 190.761719 192.742188 190.925781 L 192.601562 191.183594 C 192.550781 191.269531 192.496094 191.339844 192.441406 191.417969 C 192.003906 192.035156 191.476562 192.460938 190.96875 192.804688 C 190.457031 193.148438 189.949219 193.414062 189.449219 193.652344 C 188.949219 193.890625 188.457031 194.101562 187.980469 194.304688 C 187.5 194.507812 187.039062 194.707031 186.59375 194.914062 C 186.152344 195.121094 185.734375 195.339844 185.367188 195.582031 C 185.003906 195.820312 184.695312 196.082031 184.492188 196.347656 C 184.289062 196.617188 184.179688 196.882812 184.160156 197.214844 C 184.144531 197.546875 184.21875 197.835938 184.402344 198.140625 C 184.585938 198.445312 184.886719 198.746094 185.246094 199.023438 C 185.605469 199.300781 186.019531 199.554688 186.449219 199.800781 C 186.882812 200.042969 187.335938 200.277344 187.800781 200.515625 C 188.261719 200.75 188.734375 200.992188 189.203125 201.253906 C 189.675781 201.519531 190.144531 201.804688 190.597656 202.148438 C 191.050781 202.492188 191.488281 202.902344 191.820312 203.433594 C 191.863281 203.5 191.90625 203.5625 191.941406 203.632812 L 192.042969 203.847656 L 192.09375 203.953125 C 192.109375 203.988281 192.121094 204.03125 192.132812 204.066406 L 192.207031 204.292969 C 192.234375 204.371094 192.242188 204.449219 192.257812 204.527344 L 192.296875 204.761719 C 192.3125 204.917969 192.3125 205.074219 192.316406 205.230469 C 192.324219 205.519531 192.097656 205.761719 191.808594 205.769531 C 191.523438 205.78125 191.28125 205.558594 191.265625 205.273438 L 191.261719 205.230469 C 191.242188 204.808594 191.089844 204.433594 190.835938 204.101562 C 190.582031 203.769531 190.230469 203.484375 189.835938 203.226562 C 189.039062 202.71875 188.097656 202.332031 187.144531 201.929688 C 186.664062 201.730469 186.175781 201.527344 185.683594 201.296875 C 185.191406 201.066406 184.695312 200.8125 184.203125 200.492188 C 183.71875 200.167969 183.226562 199.769531 182.824219 199.214844 C 182.773438 199.144531 182.722656 199.078125 182.679688 199 L 182.546875 198.769531 C 182.457031 198.621094 182.402344 198.445312 182.335938 198.277344 C 182.300781 198.191406 182.28125 198.105469 182.257812 198.015625 L 182.199219 197.75 C 182.171875 197.574219 182.160156 197.394531 182.144531 197.214844 C 182.148438 197.035156 182.152344 196.855469 182.171875 196.675781 L 182.21875 196.40625 C 182.238281 196.316406 182.253906 196.226562 182.285156 196.140625 L 182.371094 195.878906 C 182.386719 195.835938 182.398438 195.789062 182.417969 195.75 L 182.476562 195.625 L 182.597656 195.382812 C 182.636719 195.300781 182.6875 195.234375 182.734375 195.15625 C 183.117188 194.566406 183.601562 194.125 184.082031 193.765625 C 184.566406 193.40625 185.054688 193.117188 185.539062 192.851562 C 186.019531 192.585938 186.496094 192.347656 186.960938 192.113281 C 187.425781 191.878906 187.878906 191.652344 188.304688 191.417969 C 188.726562 191.179688 189.125 190.9375 189.464844 190.679688 C 189.800781 190.425781 190.066406 190.15625 190.214844 189.910156 C 190.363281 189.660156 190.410156 189.460938 190.402344 189.203125 C 190.382812 188.941406 190.308594 188.761719 190.144531 188.542969 C 189.980469 188.324219 189.707031 188.085938 189.363281 187.863281 C 189.019531 187.636719 188.617188 187.421875 188.1875 187.214844 C 187.753906 187.007812 187.292969 186.808594 186.820312 186.601562 C 186.339844 186.394531 185.847656 186.179688 185.34375 185.933594 C 184.835938 185.6875 184.316406 185.414062 183.785156 185.058594 C 183.261719 184.695312 182.707031 184.246094 182.238281 183.585938 C 182.179688 183.5 182.121094 183.425781 182.066406 183.332031 C 182.015625 183.238281 181.964844 183.148438 181.914062 183.054688 C 181.8125 182.875 181.742188 182.660156 181.664062 182.460938 C 181.625 182.359375 181.601562 182.25 181.578125 182.144531 C 181.550781 182.039062 181.53125 181.933594 181.507812 181.824219 C 181.476562 181.613281 181.464844 181.402344 181.449219 181.1875 C 181.457031 180.976562 181.464844 180.761719 181.492188 180.546875 C 181.511719 180.441406 181.53125 180.332031 181.554688 180.226562 C 181.578125 180.117188 181.597656 180.007812 181.632812 179.90625 C 181.667969 179.804688 181.703125 179.699219 181.742188 179.597656 C 181.761719 179.546875 181.78125 179.492188 181.800781 179.445312 L 181.871094 179.300781 C 181.917969 179.203125 181.96875 179.109375 182.019531 179.015625 C 182.070312 178.921875 182.128906 178.839844 182.183594 178.753906 C 182.238281 178.671875 182.296875 178.582031 182.355469 178.503906 L 182.542969 178.28125 C 182.601562 178.207031 182.664062 178.125 182.730469 178.066406 L 182.921875 177.871094 C 183.054688 177.738281 183.183594 177.632812 183.316406 177.519531 C 183.449219 177.402344 183.578125 177.316406 183.710938 177.214844 C 184.238281 176.839844 184.757812 176.546875 185.261719 176.285156 C 185.761719 176.019531 186.253906 175.792969 186.726562 175.578125 C 187.199219 175.363281 187.648438 175.148438 188.074219 174.941406 C 188.496094 174.730469 188.886719 174.515625 189.210938 174.296875 C 189.539062 174.082031 189.78125 173.855469 189.917969 173.679688 C 189.933594 173.65625 189.960938 173.636719 189.96875 173.613281 C 189.980469 173.59375 189.992188 173.574219 190.007812 173.554688 L 190.027344 173.523438 C 190.035156 173.515625 190.035156 173.503906 190.042969 173.496094 C 190.050781 173.476562 190.058594 173.457031 190.070312 173.4375 C 190.085938 173.417969 190.085938 173.398438 190.09375 173.378906 C 190.097656 173.359375 190.105469 173.335938 190.117188 173.316406 C 190.125 173.273438 190.128906 173.222656 190.144531 173.175781 L 190.207031 172.71875 L 190.207031 172.722656 C 190.191406 172.769531 190.195312 172.761719 190.1875 172.773438 C 190.183594 172.785156 190.183594 172.785156 190.179688 172.789062 C 190.175781 172.796875 190.171875 172.800781 190.167969 172.804688 C 190.160156 172.8125 190.15625 172.808594 190.152344 172.8125 C 190.140625 172.8125 190.132812 172.808594 190.125 172.808594 C 190.109375 172.800781 190.097656 172.796875 190.089844 172.800781 C 190.070312 172.800781 190.070312 172.816406 190.0625 172.808594 C 190.0625 172.804688 190.0625 172.804688 190.0625 172.800781 C 190.058594 172.800781 190.058594 172.796875 190.054688 172.796875 C 190.054688 172.789062 190.046875 172.78125 190.042969 172.773438 C 190.039062 172.761719 190.027344 172.753906 190.015625 172.742188 C 190.007812 172.730469 189.992188 172.714844 189.980469 172.699219 C 189.921875 172.644531 189.835938 172.566406 189.710938 172.488281 C 189.46875 172.328125 189.121094 172.167969 188.738281 172.011719 C 188.6875 171.992188 188.640625 171.964844 188.59375 171.9375 C 188.542969 171.914062 188.492188 171.886719 188.441406 171.859375 C 188.34375 171.796875 188.242188 171.726562 188.136719 171.652344 C 188.125 171.644531 188.113281 171.636719 188.105469 171.628906 C 187.585938 171.976562 186.828125 172.199219 185.988281 172.199219 C 184.421875 172.199219 183.152344 171.433594 183.152344 170.492188 C 183.152344 169.554688 184.421875 168.789062 185.988281 168.789062 C 186.875 168.789062 187.667969 169.035156 188.1875 169.417969 C 188.214844 169.40625 188.238281 169.390625 188.265625 169.378906 C 188.402344 169.3125 188.546875 169.265625 188.6875 169.226562 C 188.757812 169.210938 188.832031 169.195312 188.902344 169.179688 C 188.972656 169.167969 189.046875 169.160156 189.121094 169.152344 C 189.191406 169.148438 189.265625 169.144531 189.335938 169.140625 L 189.558594 169.148438 C 189.636719 169.152344 189.710938 169.152344 189.785156 169.15625 C 189.863281 169.164062 189.9375 169.171875 190.015625 169.179688 C 190.167969 169.195312 190.328125 169.226562 190.484375 169.253906 C 190.566406 169.265625 190.648438 169.289062 190.726562 169.308594 C 190.808594 169.332031 190.890625 169.351562 190.972656 169.378906 C 191.058594 169.40625 191.140625 169.433594 191.222656 169.464844 C 191.308594 169.496094 191.394531 169.535156 191.476562 169.574219 C 191.558594 169.609375 191.648438 169.65625 191.734375 169.699219 L 191.859375 169.773438 L 191.988281 169.855469 C 192.328125 170.074219 192.667969 170.375 192.945312 170.761719 C 193.085938 170.953125 193.199219 171.171875 193.296875 171.394531 C 193.390625 171.621094 193.460938 171.859375 193.5 172.097656 C 193.542969 172.335938 193.550781 172.578125 193.539062 172.816406 Z M 188.34375 205.746094 C 188.335938 206.226562 187.941406 206.613281 187.457031 206.605469 C 186.984375 206.597656 186.605469 206.214844 186.597656 205.746094 L 186.558594 202.949219 C 186.601562 202.964844 186.648438 202.984375 186.691406 203.003906 L 186.84375 203.066406 C 187.378906 203.292969 187.898438 203.511719 188.371094 203.742188 Z M 187.449219 164.125 C 188.253906 164.113281 188.914062 164.753906 188.925781 165.558594 C 188.925781 165.570312 188.925781 165.589844 188.925781 165.601562 L 188.890625 168.007812 C 188.832031 168.015625 188.773438 168.023438 188.71875 168.03125 L 188.683594 168.035156 C 188.589844 168.054688 188.5 168.074219 188.402344 168.097656 C 188.363281 168.109375 188.328125 168.117188 188.292969 168.128906 C 187.644531 167.8125 186.859375 167.636719 186.046875 167.628906 L 186.015625 165.601562 C 186.003906 164.796875 186.648438 164.136719 187.449219 164.125 Z M 215.421875 173.867188 L 206.542969 161.1875 L 195.238281 169.101562 L 195.238281 155.300781 L 179.757812 155.300781 L 179.757812 169.101562 L 168.453125 161.1875 L 159.570312 173.867188 L 174 183.972656 L 159.570312 194.074219 L 168.453125 206.757812 L 179.757812 198.839844 L 179.757812 212.640625 L 195.238281 212.640625 L 195.238281 198.839844 L 206.542969 206.757812 L 215.421875 194.074219 L 200.992188 183.972656 L 215.421875 173.867188 " fill-opacity="1" fill-rule="nonzero"/></g></svg>