<svg xmlns="http://www.w3.org/2000/svg" xmlns:xlink="http://www.w3.org/1999/xlink" width="500" zoomAndPan="magnify" viewBox="0 0 375 374.999991" height="500" preserveAspectRatio="xMidYMid meet" version="1.0"><defs><g/><clipPath id="664f9cad4f"><path d="M 112.5 67.773438 L 262.5 67.773438 L 262.5 217.773438 L 112.5 217.773438 Z M 112.5 67.773438 " clip-rule="nonzero"/></clipPath><clipPath id="d88c8ee3b7"><path d="M 159.542969 110.574219 L 215.792969 110.574219 L 215.792969 167.574219 L 159.542969 167.574219 Z M 159.542969 110.574219 " clip-rule="nonzero"/></clipPath></defs><rect x="-37.5" width="450" fill="#ffffff" y="-37.499999" height="449.999989" fill-opacity="1"/><rect x="-37.5" width="450" fill="#173d23" y="-37.499999" height="449.999989" fill-opacity="1"/><g clip-path="url(#664f9cad4f)"><path fill="#21793b" d="M 187.40625 217.671875 C 174.386719 217.671875 161.285156 217.738281 148.226562 217.671875 C 147.222656 217.675781 146.222656 217.636719 145.21875 217.554688 C 144.21875 217.472656 143.222656 217.351562 142.230469 217.183594 C 141.238281 217.019531 140.257812 216.8125 139.285156 216.5625 C 138.3125 216.3125 137.351562 216.023438 136.402344 215.695312 C 135.453125 215.363281 134.519531 214.992188 133.601562 214.582031 C 132.683594 214.171875 131.785156 213.726562 130.90625 213.238281 C 130.027344 212.753906 129.171875 212.230469 128.335938 211.671875 C 127.5 211.113281 126.691406 210.519531 125.90625 209.894531 C 125.121094 209.265625 124.367188 208.605469 123.636719 207.914062 C 122.910156 207.222656 122.210938 206.503906 121.542969 205.75 C 120.875 205 120.242188 204.222656 119.640625 203.417969 C 119.039062 202.613281 118.472656 201.785156 117.941406 200.929688 C 117.410156 200.078125 116.914062 199.203125 116.457031 198.308594 C 116 197.414062 115.582031 196.503906 115.203125 195.574219 C 114.824219 194.640625 114.484375 193.699219 114.1875 192.738281 C 113.886719 191.78125 113.628906 190.808594 113.410156 189.828125 C 112.863281 187.449219 112.582031 185.035156 112.566406 182.59375 C 112.507812 156.070312 112.453125 129.585938 112.566406 103.027344 C 112.578125 101.886719 112.648438 100.746094 112.769531 99.609375 C 112.894531 98.472656 113.070312 97.347656 113.304688 96.226562 C 113.535156 95.109375 113.824219 94.003906 114.160156 92.914062 C 114.5 91.824219 114.890625 90.75 115.335938 89.695312 C 115.777344 88.644531 116.269531 87.613281 116.8125 86.609375 C 117.355469 85.601562 117.945312 84.625 118.582031 83.675781 C 119.21875 82.730469 119.902344 81.8125 120.625 80.929688 C 121.351562 80.046875 122.117188 79.203125 122.925781 78.394531 C 123.730469 77.585938 124.578125 76.816406 125.457031 76.089844 C 126.339844 75.363281 127.253906 74.679688 128.203125 74.042969 C 129.148438 73.402344 130.125 72.8125 131.128906 72.265625 C 132.132812 71.722656 133.164062 71.226562 134.214844 70.78125 C 135.265625 70.335938 136.339844 69.945312 137.429688 69.601562 C 138.519531 69.261719 139.625 68.972656 140.742188 68.738281 C 141.859375 68.503906 142.988281 68.324219 144.121094 68.199219 C 145.257812 68.074219 146.398438 68.003906 147.539062 67.988281 C 174.125 67.855469 200.707031 67.855469 227.292969 67.988281 C 228.433594 68.003906 229.574219 68.074219 230.707031 68.199219 C 231.84375 68.324219 232.96875 68.503906 234.085938 68.738281 C 235.203125 68.972656 236.308594 69.257812 237.398438 69.601562 C 238.488281 69.941406 239.558594 70.332031 240.613281 70.777344 C 241.664062 71.222656 242.691406 71.714844 243.695312 72.261719 C 244.699219 72.804688 245.675781 73.394531 246.621094 74.03125 C 247.570312 74.671875 248.484375 75.351562 249.363281 76.078125 C 250.246094 76.804688 251.089844 77.574219 251.898438 78.382812 C 252.703125 79.1875 253.46875 80.035156 254.195312 80.917969 C 254.921875 81.796875 255.601562 82.714844 256.238281 83.660156 C 256.875 84.609375 257.464844 85.585938 258.007812 86.589844 C 258.550781 87.597656 259.042969 88.625 259.484375 89.675781 C 259.929688 90.730469 260.320312 91.800781 260.660156 92.890625 C 261 93.980469 261.285156 95.085938 261.515625 96.203125 C 261.75 97.324219 261.929688 98.449219 262.050781 99.585938 C 262.175781 100.71875 262.246094 101.859375 262.257812 103 C 262.371094 129.507812 262.371094 156.027344 262.257812 182.558594 C 262.246094 183.699219 262.175781 184.839844 262.050781 185.972656 C 261.925781 187.109375 261.75 188.238281 261.515625 189.355469 C 261.285156 190.476562 260.996094 191.578125 260.65625 192.671875 C 260.316406 193.761719 259.925781 194.835938 259.484375 195.886719 C 259.039062 196.941406 258.546875 197.96875 258.003906 198.976562 C 257.460938 199.980469 256.871094 200.957031 256.234375 201.90625 C 255.597656 202.855469 254.917969 203.773438 254.191406 204.65625 C 253.46875 205.539062 252.703125 206.382812 251.894531 207.191406 C 251.085938 208 250.242188 208.769531 249.363281 209.496094 C 248.480469 210.226562 247.566406 210.90625 246.621094 211.546875 C 245.671875 212.1875 244.695312 212.777344 243.691406 213.324219 C 242.6875 213.867188 241.660156 214.363281 240.605469 214.808594 C 239.554688 215.253906 238.484375 215.648438 237.394531 215.992188 C 236.304688 216.332031 235.199219 216.621094 234.082031 216.855469 C 232.960938 217.09375 231.835938 217.273438 230.699219 217.402344 C 229.566406 217.527344 228.425781 217.597656 227.28125 217.617188 C 213.992188 217.746094 200.695312 217.617188 187.40625 217.617188 Z M 151.789062 189.484375 C 159.820312 188.09375 167.367188 185.367188 174.433594 181.3125 C 175.230469 180.855469 176.082031 180.683594 176.992188 180.789062 C 182.332031 181.753906 187.707031 181.972656 193.109375 181.449219 C 204.878906 180.214844 215.378906 176.039062 224.121094 167.9375 C 231.773438 160.851562 236.507812 152.195312 237.195312 141.65625 C 238.015625 128.984375 233.140625 118.539062 223.945312 110.039062 C 215.195312 101.96875 204.667969 97.726562 192.867188 96.714844 C 176.992188 95.347656 162.699219 99.355469 150.738281 110.179688 C 143.003906 117.210938 138.296875 125.921875 137.617188 136.476562 C 136.742188 150.167969 142.425781 161.039062 152.71875 169.640625 C 155.675781 172.105469 159.054688 174.066406 162.328125 176.324219 C 159.945312 181.292969 155.984375 185.214844 151.789062 189.484375 Z M 151.789062 189.484375 " fill-opacity="1" fill-rule="nonzero"/></g><path fill="#ffffff" d="M 151.789062 189.484375 C 155.984375 185.207031 159.945312 181.28125 162.328125 176.308594 C 159.054688 174.046875 155.675781 172.085938 152.71875 169.621094 C 142.425781 161.027344 136.742188 150.15625 137.617188 136.476562 C 138.296875 125.933594 143.003906 117.21875 150.738281 110.226562 C 162.699219 99.402344 176.992188 95.394531 192.867188 96.761719 C 204.667969 97.773438 215.183594 102.015625 223.945312 110.085938 C 233.140625 118.558594 238.015625 129 237.195312 141.703125 C 236.507812 152.242188 231.773438 160.898438 224.121094 167.984375 C 215.378906 176.085938 204.878906 180.257812 193.109375 181.496094 C 187.707031 182.019531 182.332031 181.800781 176.992188 180.835938 C 176.082031 180.730469 175.230469 180.902344 174.433594 181.355469 C 167.363281 185.398438 159.816406 188.109375 151.789062 189.484375 Z M 151.789062 189.484375 " fill-opacity="1" fill-rule="nonzero"/><g clip-path="url(#d88c8ee3b7)"><path fill="#21793b" d="M 186.128906 128.632812 C 186.820312 128.617188 187.476562 128.480469 188.050781 128.242188 C 188.050781 128.242188 188.050781 128.242188 188.054688 128.242188 C 188.125 128.285156 188.1875 128.316406 188.246094 128.34375 L 188.273438 128.355469 L 188.296875 128.363281 C 188.441406 128.421875 188.566406 128.476562 188.675781 128.527344 C 188.640625 128.550781 188.609375 128.570312 188.570312 128.597656 L 188.558594 128.605469 C 188.304688 128.777344 187.96875 128.96875 187.558594 129.171875 C 187.164062 129.363281 186.734375 129.570312 186.242188 129.792969 C 186.210938 129.808594 186.179688 129.824219 186.148438 129.835938 Z M 186.335938 142.933594 C 186.34375 142.9375 186.347656 142.941406 186.355469 142.941406 C 186.800781 143.136719 187.257812 143.335938 187.679688 143.539062 C 188.050781 143.714844 188.347656 143.875 188.589844 144.023438 L 188.574219 145.160156 C 188.34375 145.320312 188.070312 145.488281 187.738281 145.671875 C 187.34375 145.890625 186.917969 146.109375 186.441406 146.347656 L 186.410156 146.363281 C 186.402344 146.367188 186.394531 146.371094 186.386719 146.375 Z M 188.496094 150.625 L 188.433594 154.804688 C 188.398438 154.789062 188.363281 154.769531 188.328125 154.753906 C 187.851562 154.507812 187.421875 154.285156 187.023438 154.058594 C 186.824219 153.949219 186.652344 153.84375 186.492188 153.746094 L 186.460938 151.558594 C 186.644531 151.457031 186.851562 151.355469 187.089844 151.242188 C 187.523438 151.035156 187.988281 150.839844 188.4375 150.648438 C 188.457031 150.640625 188.476562 150.632812 188.496094 150.625 Z M 188.71875 135.105469 L 188.675781 138.035156 C 188.675781 138.035156 188.675781 138.035156 188.671875 138.035156 L 188.640625 138.015625 C 188.164062 137.78125 187.738281 137.570312 187.347656 137.359375 C 186.929688 137.128906 186.609375 136.929688 186.363281 136.746094 C 186.320312 136.710938 186.28125 136.679688 186.246094 136.652344 L 186.242188 136.421875 C 186.289062 136.386719 186.339844 136.347656 186.402344 136.304688 C 186.648438 136.136719 186.972656 135.953125 187.390625 135.742188 C 187.777344 135.546875 188.195312 135.351562 188.632812 135.148438 Z M 193.539062 128.089844 C 193.53125 128.207031 193.515625 128.328125 193.492188 128.449219 C 193.480469 128.511719 193.46875 128.570312 193.449219 128.636719 C 193.445312 128.660156 193.4375 128.6875 193.429688 128.714844 C 193.425781 128.835938 193.417969 128.957031 193.40625 129.082031 C 193.386719 129.1875 193.371094 129.292969 193.347656 129.402344 C 193.328125 129.507812 193.308594 129.617188 193.273438 129.71875 C 193.242188 129.820312 193.207031 129.925781 193.167969 130.027344 C 193.148438 130.078125 193.132812 130.132812 193.113281 130.179688 L 193.042969 130.320312 C 192.996094 130.417969 192.949219 130.511719 192.898438 130.605469 C 192.851562 130.699219 192.792969 130.78125 192.738281 130.867188 C 192.683594 130.953125 192.625 131.039062 192.566406 131.121094 C 192.507812 131.195312 192.449219 131.269531 192.386719 131.34375 C 192.324219 131.414062 192.261719 131.496094 192.199219 131.558594 L 192.007812 131.75 C 191.875 131.886719 191.746094 131.988281 191.617188 132.101562 C 191.484375 132.21875 191.355469 132.308594 191.222656 132.410156 C 190.699219 132.789062 190.179688 133.082031 189.679688 133.347656 C 189.175781 133.613281 188.6875 133.835938 188.214844 134.058594 C 187.746094 134.277344 187.292969 134.488281 186.871094 134.699219 C 186.449219 134.910156 186.058594 135.128906 185.738281 135.351562 C 185.417969 135.570312 185.171875 135.792969 185.042969 135.96875 C 185.03125 135.992188 185.003906 136.011719 184.996094 136.035156 C 184.984375 136.054688 184.976562 136.074219 184.960938 136.09375 L 184.941406 136.125 C 184.9375 136.132812 184.9375 136.144531 184.933594 136.152344 C 184.925781 136.171875 184.917969 136.191406 184.90625 136.207031 C 184.894531 136.226562 184.894531 136.246094 184.890625 136.265625 C 184.886719 136.285156 184.878906 136.304688 184.871094 136.324219 C 184.867188 136.367188 184.867188 136.414062 184.855469 136.460938 C 184.859375 136.507812 184.855469 136.554688 184.855469 136.601562 C 184.859375 136.621094 184.863281 136.640625 184.867188 136.660156 C 184.871094 136.683594 184.867188 136.703125 184.875 136.722656 C 184.882812 136.742188 184.890625 136.765625 184.894531 136.785156 C 184.898438 136.796875 184.894531 136.804688 184.902344 136.816406 L 184.917969 136.847656 C 184.929688 136.871094 184.9375 136.894531 184.945312 136.917969 C 184.953125 136.941406 184.976562 136.964844 184.992188 136.988281 C 185.109375 137.1875 185.347656 137.4375 185.667969 137.675781 C 185.984375 137.917969 186.375 138.152344 186.792969 138.378906 C 187.210938 138.609375 187.660156 138.832031 188.125 139.0625 C 188.589844 139.292969 189.074219 139.527344 189.566406 139.796875 C 190.058594 140.0625 190.5625 140.355469 191.070312 140.730469 C 191.570312 141.105469 192.089844 141.566406 192.511719 142.210938 C 192.5625 142.289062 192.621094 142.367188 192.664062 142.453125 C 192.710938 142.542969 192.757812 142.632812 192.800781 142.722656 L 192.863281 142.855469 C 192.886719 142.902344 192.898438 142.949219 192.917969 142.996094 C 192.953125 143.09375 192.984375 143.191406 193.015625 143.285156 C 193.050781 143.382812 193.066406 143.480469 193.089844 143.582031 C 193.109375 143.679688 193.125 143.78125 193.144531 143.882812 C 193.167969 144.078125 193.171875 144.277344 193.179688 144.476562 C 193.164062 144.671875 193.152344 144.871094 193.121094 145.066406 C 193.101562 145.164062 193.082031 145.265625 193.058594 145.363281 C 193.03125 145.460938 193.011719 145.558594 192.976562 145.652344 C 192.902344 145.839844 192.839844 146.035156 192.742188 146.203125 L 192.601562 146.457031 C 192.550781 146.542969 192.496094 146.617188 192.441406 146.691406 C 192.003906 147.308594 191.476562 147.734375 190.96875 148.078125 C 190.457031 148.421875 189.949219 148.6875 189.449219 148.925781 C 188.949219 149.164062 188.457031 149.375 187.980469 149.578125 C 187.5 149.78125 187.039062 149.980469 186.59375 150.1875 C 186.152344 150.398438 185.734375 150.617188 185.367188 150.855469 C 185.003906 151.09375 184.695312 151.355469 184.492188 151.621094 C 184.289062 151.890625 184.179688 152.15625 184.160156 152.488281 C 184.144531 152.820312 184.21875 153.109375 184.402344 153.414062 C 184.585938 153.71875 184.886719 154.019531 185.246094 154.296875 C 185.605469 154.574219 186.019531 154.828125 186.449219 155.074219 C 186.882812 155.316406 187.335938 155.550781 187.800781 155.789062 C 188.261719 156.023438 188.734375 156.265625 189.203125 156.53125 C 189.675781 156.792969 190.144531 157.078125 190.597656 157.421875 C 191.050781 157.765625 191.488281 158.175781 191.820312 158.707031 C 191.863281 158.773438 191.90625 158.835938 191.941406 158.90625 L 192.042969 159.121094 L 192.09375 159.226562 C 192.109375 159.265625 192.121094 159.304688 192.132812 159.339844 L 192.207031 159.566406 C 192.234375 159.644531 192.242188 159.722656 192.257812 159.800781 L 192.296875 160.035156 C 192.3125 160.191406 192.3125 160.347656 192.316406 160.503906 C 192.324219 160.792969 192.097656 161.035156 191.808594 161.042969 C 191.523438 161.054688 191.28125 160.832031 191.265625 160.546875 L 191.261719 160.503906 C 191.242188 160.082031 191.089844 159.707031 190.835938 159.375 C 190.582031 159.042969 190.230469 158.757812 189.835938 158.5 C 189.039062 157.992188 188.097656 157.605469 187.144531 157.203125 C 186.664062 157.003906 186.175781 156.800781 185.683594 156.570312 C 185.191406 156.339844 184.695312 156.085938 184.203125 155.765625 C 183.71875 155.441406 183.226562 155.042969 182.824219 154.488281 C 182.773438 154.417969 182.722656 154.351562 182.679688 154.277344 L 182.546875 154.042969 C 182.457031 153.894531 182.402344 153.71875 182.335938 153.550781 C 182.300781 153.46875 182.28125 153.378906 182.257812 153.289062 L 182.199219 153.023438 C 182.171875 152.847656 182.160156 152.667969 182.144531 152.488281 C 182.148438 152.308594 182.152344 152.128906 182.171875 151.949219 L 182.21875 151.679688 C 182.238281 151.589844 182.253906 151.5 182.285156 151.414062 L 182.371094 151.152344 C 182.386719 151.109375 182.398438 151.0625 182.417969 151.023438 L 182.476562 150.898438 L 182.597656 150.65625 C 182.636719 150.574219 182.6875 150.507812 182.734375 150.429688 C 183.117188 149.839844 183.601562 149.402344 184.082031 149.039062 C 184.566406 148.679688 185.054688 148.390625 185.539062 148.125 C 186.019531 147.859375 186.496094 147.621094 186.960938 147.386719 C 187.425781 147.152344 187.878906 146.925781 188.304688 146.691406 C 188.726562 146.453125 189.125 146.210938 189.464844 145.953125 C 189.800781 145.699219 190.066406 145.429688 190.214844 145.183594 C 190.363281 144.933594 190.410156 144.734375 190.402344 144.476562 C 190.382812 144.214844 190.308594 144.035156 190.144531 143.816406 C 189.980469 143.597656 189.707031 143.359375 189.363281 143.136719 C 189.019531 142.910156 188.617188 142.695312 188.1875 142.488281 C 187.753906 142.28125 187.292969 142.082031 186.820312 141.875 C 186.339844 141.667969 185.847656 141.453125 185.34375 141.207031 C 184.835938 140.960938 184.316406 140.6875 183.785156 140.332031 C 183.261719 139.96875 182.707031 139.519531 182.238281 138.859375 C 182.179688 138.773438 182.121094 138.699219 182.066406 138.605469 C 182.015625 138.515625 181.964844 138.421875 181.914062 138.328125 C 181.8125 138.148438 181.742188 137.933594 181.664062 137.734375 C 181.625 137.632812 181.601562 137.523438 181.578125 137.417969 C 181.550781 137.3125 181.53125 137.207031 181.507812 137.097656 C 181.476562 136.886719 181.464844 136.675781 181.449219 136.460938 C 181.457031 136.25 181.464844 136.035156 181.492188 135.820312 C 181.511719 135.714844 181.53125 135.605469 181.554688 135.5 C 181.578125 135.390625 181.597656 135.28125 181.632812 135.179688 C 181.667969 135.078125 181.703125 134.972656 181.742188 134.871094 C 181.761719 134.820312 181.78125 134.765625 181.800781 134.71875 L 181.871094 134.574219 C 181.917969 134.476562 181.96875 134.382812 182.019531 134.289062 C 182.070312 134.195312 182.128906 134.113281 182.183594 134.027344 C 182.238281 133.945312 182.296875 133.855469 182.355469 133.777344 L 182.542969 133.554688 C 182.601562 133.480469 182.664062 133.398438 182.730469 133.339844 L 182.921875 133.144531 C 183.054688 133.011719 183.183594 132.90625 183.316406 132.792969 C 183.449219 132.675781 183.578125 132.589844 183.710938 132.488281 C 184.238281 132.113281 184.757812 131.820312 185.261719 131.558594 C 185.761719 131.292969 186.253906 131.066406 186.726562 130.851562 C 187.199219 130.636719 187.648438 130.421875 188.074219 130.214844 C 188.496094 130.003906 188.886719 129.789062 189.210938 129.570312 C 189.539062 129.355469 189.78125 129.128906 189.917969 128.953125 C 189.933594 128.929688 189.960938 128.910156 189.96875 128.890625 C 189.980469 128.867188 189.992188 128.847656 190.007812 128.828125 L 190.027344 128.796875 C 190.035156 128.789062 190.035156 128.777344 190.042969 128.769531 C 190.050781 128.75 190.058594 128.730469 190.070312 128.710938 C 190.085938 128.695312 190.085938 128.671875 190.09375 128.652344 C 190.097656 128.632812 190.105469 128.609375 190.117188 128.589844 C 190.125 128.546875 190.128906 128.496094 190.144531 128.449219 L 190.207031 127.992188 L 190.207031 127.996094 C 190.191406 128.042969 190.195312 128.035156 190.1875 128.046875 C 190.183594 128.058594 190.183594 128.058594 190.179688 128.0625 C 190.175781 128.070312 190.171875 128.074219 190.167969 128.078125 C 190.160156 128.085938 190.15625 128.082031 190.152344 128.085938 C 190.140625 128.085938 190.132812 128.082031 190.125 128.082031 C 190.109375 128.074219 190.097656 128.074219 190.089844 128.074219 C 190.070312 128.074219 190.070312 128.089844 190.0625 128.082031 C 190.0625 128.078125 190.0625 128.078125 190.0625 128.074219 C 190.058594 128.074219 190.058594 128.070312 190.054688 128.070312 C 190.054688 128.0625 190.046875 128.054688 190.042969 128.046875 C 190.039062 128.035156 190.027344 128.027344 190.015625 128.015625 C 190.007812 128.003906 189.992188 127.988281 189.980469 127.972656 C 189.921875 127.917969 189.835938 127.839844 189.710938 127.761719 C 189.46875 127.601562 189.121094 127.441406 188.738281 127.285156 C 188.6875 127.265625 188.640625 127.238281 188.59375 127.214844 C 188.542969 127.1875 188.492188 127.160156 188.441406 127.132812 C 188.34375 127.070312 188.242188 127 188.136719 126.925781 C 188.125 126.917969 188.113281 126.910156 188.105469 126.902344 C 187.585938 127.25 186.828125 127.472656 185.988281 127.472656 C 184.421875 127.472656 183.152344 126.707031 183.152344 125.765625 C 183.152344 124.828125 184.421875 124.0625 185.988281 124.0625 C 186.875 124.0625 187.667969 124.308594 188.1875 124.691406 C 188.214844 124.679688 188.238281 124.664062 188.265625 124.652344 C 188.402344 124.585938 188.546875 124.539062 188.6875 124.5 C 188.757812 124.484375 188.832031 124.46875 188.902344 124.453125 C 188.972656 124.441406 189.046875 124.433594 189.121094 124.425781 C 189.191406 124.421875 189.265625 124.417969 189.335938 124.414062 L 189.558594 124.421875 C 189.636719 124.425781 189.710938 124.425781 189.785156 124.433594 C 189.863281 124.4375 189.9375 124.445312 190.015625 124.453125 C 190.167969 124.46875 190.328125 124.5 190.484375 124.527344 C 190.566406 124.539062 190.648438 124.566406 190.726562 124.582031 C 190.808594 124.605469 190.890625 124.625 190.972656 124.652344 C 191.058594 124.679688 191.140625 124.707031 191.222656 124.738281 C 191.308594 124.773438 191.394531 124.808594 191.476562 124.847656 C 191.558594 124.882812 191.648438 124.929688 191.734375 124.976562 L 191.859375 125.046875 L 191.988281 125.128906 C 192.328125 125.347656 192.667969 125.648438 192.945312 126.039062 C 193.085938 126.226562 193.199219 126.445312 193.296875 126.667969 C 193.390625 126.894531 193.460938 127.132812 193.5 127.371094 C 193.542969 127.609375 193.550781 127.851562 193.539062 128.089844 Z M 188.34375 161.019531 C 188.335938 161.5 187.941406 161.886719 187.457031 161.878906 C 186.984375 161.871094 186.605469 161.488281 186.597656 161.019531 L 186.558594 158.222656 C 186.601562 158.238281 186.648438 158.257812 186.691406 158.277344 L 186.84375 158.339844 C 187.378906 158.566406 187.898438 158.785156 188.371094 159.015625 Z M 187.449219 119.398438 C 188.253906 119.386719 188.914062 120.027344 188.925781 120.832031 C 188.925781 120.84375 188.925781 120.863281 188.925781 120.875 L 188.890625 123.28125 C 188.832031 123.289062 188.773438 123.296875 188.71875 123.304688 L 188.683594 123.308594 C 188.589844 123.328125 188.5 123.347656 188.402344 123.375 C 188.363281 123.382812 188.328125 123.394531 188.292969 123.402344 C 187.644531 123.085938 186.859375 122.910156 186.046875 122.902344 L 186.015625 120.875 C 186.003906 120.070312 186.648438 119.410156 187.449219 119.398438 Z M 215.421875 129.140625 L 206.542969 116.460938 L 195.238281 124.375 L 195.238281 110.574219 L 179.757812 110.574219 L 179.757812 124.375 L 168.453125 116.460938 L 159.570312 129.140625 L 174 139.246094 L 159.570312 149.347656 L 168.453125 162.03125 L 179.757812 154.113281 L 179.757812 167.914062 L 195.238281 167.914062 L 195.238281 154.113281 L 206.542969 162.03125 L 215.421875 149.347656 L 200.992188 139.246094 L 215.421875 129.140625 " fill-opacity="1" fill-rule="nonzero"/></g><g fill="#ffffff" fill-opacity="1"><g transform="translate(76.222819, 261.176952)"><g><path d="M 15.71875 -9.28125 L 12.734375 -17.453125 C 12.585938 -17.816406 12.429688 -18.25 12.265625 -18.75 C 12.109375 -19.25 11.953125 -19.785156 11.796875 -20.359375 C 11.648438 -19.785156 11.492188 -19.242188 11.328125 -18.734375 C 11.171875 -18.234375 11.019531 -17.796875 10.875 -17.421875 L 7.90625 -9.28125 Z M 23.796875 0 L 20.265625 0 C 19.867188 0 19.546875 -0.0976562 19.296875 -0.296875 C 19.046875 -0.492188 18.859375 -0.738281 18.734375 -1.03125 L 16.890625 -6.046875 L 6.71875 -6.046875 L 4.875 -1.03125 C 4.789062 -0.769531 4.617188 -0.53125 4.359375 -0.3125 C 4.097656 -0.101562 3.773438 0 3.390625 0 L -0.1875 0 L 9.484375 -24.578125 L 14.140625 -24.578125 Z M 23.796875 0 "/></g></g></g><g fill="#ffffff" fill-opacity="1"><g transform="translate(99.833111, 261.176952)"><g><path d="M 17.140625 -3.78125 L 17.140625 0 L 2.734375 0 L 2.734375 -24.578125 L 7.3125 -24.578125 L 7.3125 -3.78125 Z M 17.140625 -3.78125 "/></g></g></g><g fill="#ffffff" fill-opacity="1"><g transform="translate(117.49409, 261.176952)"><g><path d="M 26.1875 -12.296875 C 26.1875 -10.492188 25.882812 -8.820312 25.28125 -7.28125 C 24.6875 -5.75 23.84375 -4.421875 22.75 -3.296875 C 21.664062 -2.171875 20.359375 -1.296875 18.828125 -0.671875 C 17.304688 -0.046875 15.609375 0.265625 13.734375 0.265625 C 11.878906 0.265625 10.1875 -0.046875 8.65625 -0.671875 C 7.125 -1.296875 5.8125 -2.171875 4.71875 -3.296875 C 3.625 -4.421875 2.773438 -5.75 2.171875 -7.28125 C 1.578125 -8.820312 1.28125 -10.492188 1.28125 -12.296875 C 1.28125 -14.097656 1.578125 -15.765625 2.171875 -17.296875 C 2.773438 -18.828125 3.625 -20.15625 4.71875 -21.28125 C 5.8125 -22.40625 7.125 -23.28125 8.65625 -23.90625 C 10.1875 -24.539062 11.878906 -24.859375 13.734375 -24.859375 C 14.984375 -24.859375 16.15625 -24.710938 17.25 -24.421875 C 18.351562 -24.128906 19.363281 -23.71875 20.28125 -23.1875 C 21.195312 -22.664062 22.019531 -22.023438 22.75 -21.265625 C 23.476562 -20.515625 24.097656 -19.675781 24.609375 -18.75 C 25.117188 -17.820312 25.507812 -16.8125 25.78125 -15.71875 C 26.050781 -14.632812 26.1875 -13.492188 26.1875 -12.296875 Z M 21.5 -12.296875 C 21.5 -13.640625 21.316406 -14.847656 20.953125 -15.921875 C 20.597656 -16.992188 20.082031 -17.898438 19.40625 -18.640625 C 18.738281 -19.390625 17.925781 -19.960938 16.96875 -20.359375 C 16.007812 -20.765625 14.929688 -20.96875 13.734375 -20.96875 C 12.535156 -20.96875 11.457031 -20.765625 10.5 -20.359375 C 9.539062 -19.960938 8.722656 -19.390625 8.046875 -18.640625 C 7.367188 -17.898438 6.847656 -16.992188 6.484375 -15.921875 C 6.128906 -14.847656 5.953125 -13.640625 5.953125 -12.296875 C 5.953125 -10.941406 6.128906 -9.726562 6.484375 -8.65625 C 6.847656 -7.59375 7.367188 -6.6875 8.046875 -5.9375 C 8.722656 -5.195312 9.539062 -4.628906 10.5 -4.234375 C 11.457031 -3.835938 12.535156 -3.640625 13.734375 -3.640625 C 14.929688 -3.640625 16.007812 -3.835938 16.96875 -4.234375 C 17.925781 -4.628906 18.738281 -5.195312 19.40625 -5.9375 C 20.082031 -6.6875 20.597656 -7.59375 20.953125 -8.65625 C 21.316406 -9.726562 21.5 -10.941406 21.5 -12.296875 Z M 19.84375 -26.328125 L 16.796875 -26.328125 C 16.628906 -26.328125 16.421875 -26.359375 16.171875 -26.421875 C 15.929688 -26.484375 15.679688 -26.671875 15.421875 -26.984375 L 14.03125 -28.78125 C 13.914062 -28.9375 13.828125 -29.0625 13.765625 -29.15625 C 13.710938 -29.0625 13.628906 -28.9375 13.515625 -28.78125 L 12.125 -26.984375 C 11.863281 -26.671875 11.609375 -26.484375 11.359375 -26.421875 C 11.117188 -26.359375 10.914062 -26.328125 10.75 -26.328125 L 7.828125 -26.328125 L 11.9375 -31.015625 L 15.734375 -31.015625 Z M 19.84375 -26.328125 "/></g></g></g><g fill="#ffffff" fill-opacity="1"><g transform="translate(144.962941, 261.176952)"><g/></g></g><g fill="#ffffff" fill-opacity="1"><g transform="translate(153.223996, 261.176952)"><g><path d="M 24.5625 -12.296875 C 24.5625 -10.492188 24.257812 -8.835938 23.65625 -7.328125 C 23.0625 -5.816406 22.21875 -4.515625 21.125 -3.421875 C 20.039062 -2.335938 18.734375 -1.492188 17.203125 -0.890625 C 15.671875 -0.296875 13.972656 0 12.109375 0 L 2.734375 0 L 2.734375 -24.578125 L 12.109375 -24.578125 C 13.972656 -24.578125 15.671875 -24.273438 17.203125 -23.671875 C 18.734375 -23.066406 20.039062 -22.222656 21.125 -21.140625 C 22.21875 -20.054688 23.0625 -18.757812 23.65625 -17.25 C 24.257812 -15.75 24.5625 -14.097656 24.5625 -12.296875 Z M 19.875 -12.296875 C 19.875 -13.640625 19.691406 -14.847656 19.328125 -15.921875 C 18.972656 -16.992188 18.457031 -17.898438 17.78125 -18.640625 C 17.113281 -19.378906 16.300781 -19.945312 15.34375 -20.34375 C 14.382812 -20.738281 13.304688 -20.9375 12.109375 -20.9375 L 7.328125 -20.9375 L 7.328125 -3.640625 L 12.109375 -3.640625 C 13.304688 -3.640625 14.382812 -3.835938 15.34375 -4.234375 C 16.300781 -4.628906 17.113281 -5.195312 17.78125 -5.9375 C 18.457031 -6.6875 18.972656 -7.59375 19.328125 -8.65625 C 19.691406 -9.726562 19.875 -10.941406 19.875 -12.296875 Z M 19.875 -12.296875 "/></g></g></g><g fill="#ffffff" fill-opacity="1"><g transform="translate(179.078029, 261.176952)"><g><path d="M 26.1875 -12.296875 C 26.1875 -10.492188 25.882812 -8.820312 25.28125 -7.28125 C 24.6875 -5.75 23.84375 -4.421875 22.75 -3.296875 C 21.664062 -2.171875 20.359375 -1.296875 18.828125 -0.671875 C 17.304688 -0.046875 15.609375 0.265625 13.734375 0.265625 C 11.878906 0.265625 10.1875 -0.046875 8.65625 -0.671875 C 7.125 -1.296875 5.8125 -2.171875 4.71875 -3.296875 C 3.625 -4.421875 2.773438 -5.75 2.171875 -7.28125 C 1.578125 -8.820312 1.28125 -10.492188 1.28125 -12.296875 C 1.28125 -14.097656 1.578125 -15.765625 2.171875 -17.296875 C 2.773438 -18.828125 3.625 -20.15625 4.71875 -21.28125 C 5.8125 -22.40625 7.125 -23.28125 8.65625 -23.90625 C 10.1875 -24.539062 11.878906 -24.859375 13.734375 -24.859375 C 14.984375 -24.859375 16.15625 -24.710938 17.25 -24.421875 C 18.351562 -24.128906 19.363281 -23.71875 20.28125 -23.1875 C 21.195312 -22.664062 22.019531 -22.023438 22.75 -21.265625 C 23.476562 -20.515625 24.097656 -19.675781 24.609375 -18.75 C 25.117188 -17.820312 25.507812 -16.8125 25.78125 -15.71875 C 26.050781 -14.632812 26.1875 -13.492188 26.1875 -12.296875 Z M 21.5 -12.296875 C 21.5 -13.640625 21.316406 -14.847656 20.953125 -15.921875 C 20.597656 -16.992188 20.082031 -17.898438 19.40625 -18.640625 C 18.738281 -19.390625 17.925781 -19.960938 16.96875 -20.359375 C 16.007812 -20.765625 14.929688 -20.96875 13.734375 -20.96875 C 12.535156 -20.96875 11.457031 -20.765625 10.5 -20.359375 C 9.539062 -19.960938 8.722656 -19.390625 8.046875 -18.640625 C 7.367188 -17.898438 6.847656 -16.992188 6.484375 -15.921875 C 6.128906 -14.847656 5.953125 -13.640625 5.953125 -12.296875 C 5.953125 -10.941406 6.128906 -9.726562 6.484375 -8.65625 C 6.847656 -7.59375 7.367188 -6.6875 8.046875 -5.9375 C 8.722656 -5.195312 9.539062 -4.628906 10.5 -4.234375 C 11.457031 -3.835938 12.535156 -3.640625 13.734375 -3.640625 C 14.929688 -3.640625 16.007812 -3.835938 16.96875 -4.234375 C 17.925781 -4.628906 18.738281 -5.195312 19.40625 -5.9375 C 20.082031 -6.6875 20.597656 -7.59375 20.953125 -8.65625 C 21.316406 -9.726562 21.5 -10.941406 21.5 -12.296875 Z M 21.5 -12.296875 "/></g></g></g><g fill="#ffffff" fill-opacity="1"><g transform="translate(206.54688, 261.176952)"><g><path d="M 19.625 -5.796875 C 19.863281 -5.796875 20.082031 -5.703125 20.28125 -5.515625 L 22.078125 -3.546875 C 21.085938 -2.316406 19.863281 -1.375 18.40625 -0.71875 C 16.945312 -0.0625 15.195312 0.265625 13.15625 0.265625 C 11.332031 0.265625 9.691406 -0.0390625 8.234375 -0.65625 C 6.773438 -1.28125 5.53125 -2.148438 4.5 -3.265625 C 3.46875 -4.378906 2.675781 -5.703125 2.125 -7.234375 C 1.582031 -8.773438 1.3125 -10.460938 1.3125 -12.296875 C 1.3125 -14.140625 1.601562 -15.828125 2.1875 -17.359375 C 2.78125 -18.898438 3.613281 -20.222656 4.6875 -21.328125 C 5.757812 -22.441406 7.035156 -23.304688 8.515625 -23.921875 C 10.003906 -24.546875 11.648438 -24.859375 13.453125 -24.859375 C 15.242188 -24.859375 16.832031 -24.5625 18.21875 -23.96875 C 19.601562 -23.382812 20.785156 -22.613281 21.765625 -21.65625 L 20.234375 -19.53125 C 20.140625 -19.394531 20.019531 -19.273438 19.875 -19.171875 C 19.738281 -19.066406 19.546875 -19.015625 19.296875 -19.015625 C 19.128906 -19.015625 18.953125 -19.0625 18.765625 -19.15625 C 18.585938 -19.257812 18.390625 -19.378906 18.171875 -19.515625 C 17.953125 -19.660156 17.703125 -19.816406 17.421875 -19.984375 C 17.140625 -20.160156 16.8125 -20.316406 16.4375 -20.453125 C 16.0625 -20.597656 15.628906 -20.71875 15.140625 -20.8125 C 14.648438 -20.914062 14.082031 -20.96875 13.4375 -20.96875 C 12.332031 -20.96875 11.320312 -20.769531 10.40625 -20.375 C 9.5 -19.976562 8.71875 -19.410156 8.0625 -18.671875 C 7.40625 -17.929688 6.894531 -17.023438 6.53125 -15.953125 C 6.164062 -14.878906 5.984375 -13.660156 5.984375 -12.296875 C 5.984375 -10.910156 6.175781 -9.675781 6.5625 -8.59375 C 6.957031 -7.519531 7.488281 -6.613281 8.15625 -5.875 C 8.820312 -5.144531 9.609375 -4.582031 10.515625 -4.1875 C 11.429688 -3.800781 12.410156 -3.609375 13.453125 -3.609375 C 14.066406 -3.609375 14.625 -3.640625 15.125 -3.703125 C 15.632812 -3.773438 16.101562 -3.882812 16.53125 -4.03125 C 16.957031 -4.175781 17.359375 -4.363281 17.734375 -4.59375 C 18.117188 -4.832031 18.5 -5.117188 18.875 -5.453125 C 18.988281 -5.554688 19.101562 -5.640625 19.21875 -5.703125 C 19.34375 -5.765625 19.476562 -5.796875 19.625 -5.796875 Z M 19.625 -5.796875 "/></g></g></g><g fill="#ffffff" fill-opacity="1"><g transform="translate(229.035297, 261.176952)"><g><path d="M 19.90625 -20.828125 L 12.5 -20.828125 L 12.5 0 L 7.921875 0 L 7.921875 -20.828125 L 0.515625 -20.828125 L 0.515625 -24.578125 L 19.90625 -24.578125 Z M 19.90625 -20.828125 "/></g></g></g><g fill="#ffffff" fill-opacity="1"><g transform="translate(249.432958, 261.176952)"><g><path d="M 26.1875 -12.296875 C 26.1875 -10.492188 25.882812 -8.820312 25.28125 -7.28125 C 24.6875 -5.75 23.84375 -4.421875 22.75 -3.296875 C 21.664062 -2.171875 20.359375 -1.296875 18.828125 -0.671875 C 17.304688 -0.046875 15.609375 0.265625 13.734375 0.265625 C 11.878906 0.265625 10.1875 -0.046875 8.65625 -0.671875 C 7.125 -1.296875 5.8125 -2.171875 4.71875 -3.296875 C 3.625 -4.421875 2.773438 -5.75 2.171875 -7.28125 C 1.578125 -8.820312 1.28125 -10.492188 1.28125 -12.296875 C 1.28125 -14.097656 1.578125 -15.765625 2.171875 -17.296875 C 2.773438 -18.828125 3.625 -20.15625 4.71875 -21.28125 C 5.8125 -22.40625 7.125 -23.28125 8.65625 -23.90625 C 10.1875 -24.539062 11.878906 -24.859375 13.734375 -24.859375 C 14.984375 -24.859375 16.15625 -24.710938 17.25 -24.421875 C 18.351562 -24.128906 19.363281 -23.71875 20.28125 -23.1875 C 21.195312 -22.664062 22.019531 -22.023438 22.75 -21.265625 C 23.476562 -20.515625 24.097656 -19.675781 24.609375 -18.75 C 25.117188 -17.820312 25.507812 -16.8125 25.78125 -15.71875 C 26.050781 -14.632812 26.1875 -13.492188 26.1875 -12.296875 Z M 21.5 -12.296875 C 21.5 -13.640625 21.316406 -14.847656 20.953125 -15.921875 C 20.597656 -16.992188 20.082031 -17.898438 19.40625 -18.640625 C 18.738281 -19.390625 17.925781 -19.960938 16.96875 -20.359375 C 16.007812 -20.765625 14.929688 -20.96875 13.734375 -20.96875 C 12.535156 -20.96875 11.457031 -20.765625 10.5 -20.359375 C 9.539062 -19.960938 8.722656 -19.390625 8.046875 -18.640625 C 7.367188 -17.898438 6.847656 -16.992188 6.484375 -15.921875 C 6.128906 -14.847656 5.953125 -13.640625 5.953125 -12.296875 C 5.953125 -10.941406 6.128906 -9.726562 6.484375 -8.65625 C 6.847656 -7.59375 7.367188 -6.6875 8.046875 -5.9375 C 8.722656 -5.195312 9.539062 -4.628906 10.5 -4.234375 C 11.457031 -3.835938 12.535156 -3.640625 13.734375 -3.640625 C 14.929688 -3.640625 16.007812 -3.835938 16.96875 -4.234375 C 17.925781 -4.628906 18.738281 -5.195312 19.40625 -5.9375 C 20.082031 -6.6875 20.597656 -7.59375 20.953125 -8.65625 C 21.316406 -9.726562 21.5 -10.941406 21.5 -12.296875 Z M 21.5 -12.296875 "/></g></g></g><g fill="#ffffff" fill-opacity="1"><g transform="translate(276.901821, 261.176952)"><g><path d="M 10.171875 -12.890625 C 11.023438 -12.890625 11.769531 -12.992188 12.40625 -13.203125 C 13.050781 -13.421875 13.582031 -13.71875 14 -14.09375 C 14.414062 -14.476562 14.722656 -14.929688 14.921875 -15.453125 C 15.128906 -15.972656 15.234375 -16.546875 15.234375 -17.171875 C 15.234375 -18.421875 14.820312 -19.378906 14 -20.046875 C 13.175781 -20.710938 11.921875 -21.046875 10.234375 -21.046875 L 7.3125 -21.046875 L 7.3125 -12.890625 Z M 21.9375 0 L 17.796875 0 C 17.015625 0 16.445312 -0.304688 16.09375 -0.921875 L 10.9375 -8.78125 C 10.738281 -9.082031 10.519531 -9.296875 10.28125 -9.421875 C 10.050781 -9.546875 9.710938 -9.609375 9.265625 -9.609375 L 7.3125 -9.609375 L 7.3125 0 L 2.734375 0 L 2.734375 -24.578125 L 10.234375 -24.578125 C 11.898438 -24.578125 13.328125 -24.40625 14.515625 -24.0625 C 15.710938 -23.71875 16.691406 -23.234375 17.453125 -22.609375 C 18.222656 -21.984375 18.789062 -21.238281 19.15625 -20.375 C 19.519531 -19.507812 19.703125 -18.554688 19.703125 -17.515625 C 19.703125 -16.679688 19.578125 -15.894531 19.328125 -15.15625 C 19.085938 -14.425781 18.738281 -13.757812 18.28125 -13.15625 C 17.820312 -12.550781 17.253906 -12.019531 16.578125 -11.5625 C 15.910156 -11.113281 15.144531 -10.757812 14.28125 -10.5 C 14.570312 -10.332031 14.84375 -10.128906 15.09375 -9.890625 C 15.34375 -9.660156 15.570312 -9.390625 15.78125 -9.078125 Z M 21.9375 0 "/></g></g></g><g fill="#ffffff" fill-opacity="1"><g transform="translate(114.605381, 277.776925)"><g><path d="M 4.65625 -5.921875 C 4.613281 -5.847656 4.566406 -5.796875 4.515625 -5.765625 C 4.472656 -5.734375 4.421875 -5.71875 4.359375 -5.71875 C 4.285156 -5.71875 4.207031 -5.742188 4.125 -5.796875 C 4.050781 -5.847656 3.957031 -5.90625 3.84375 -5.96875 C 3.726562 -6.03125 3.59375 -6.085938 3.4375 -6.140625 C 3.289062 -6.191406 3.113281 -6.21875 2.90625 -6.21875 C 2.71875 -6.21875 2.550781 -6.191406 2.40625 -6.140625 C 2.269531 -6.097656 2.15625 -6.035156 2.0625 -5.953125 C 1.96875 -5.878906 1.894531 -5.785156 1.84375 -5.671875 C 1.800781 -5.554688 1.78125 -5.4375 1.78125 -5.3125 C 1.78125 -5.132812 1.828125 -4.988281 1.921875 -4.875 C 2.015625 -4.757812 2.140625 -4.660156 2.296875 -4.578125 C 2.453125 -4.503906 2.628906 -4.4375 2.828125 -4.375 C 3.035156 -4.3125 3.242188 -4.242188 3.453125 -4.171875 C 3.660156 -4.097656 3.863281 -4.015625 4.0625 -3.921875 C 4.257812 -3.828125 4.4375 -3.707031 4.59375 -3.5625 C 4.75 -3.414062 4.875 -3.238281 4.96875 -3.03125 C 5.070312 -2.820312 5.125 -2.566406 5.125 -2.265625 C 5.125 -1.941406 5.066406 -1.632812 4.953125 -1.34375 C 4.835938 -1.0625 4.671875 -0.8125 4.453125 -0.59375 C 4.242188 -0.382812 3.984375 -0.21875 3.671875 -0.09375 C 3.359375 0.0195312 3.003906 0.078125 2.609375 0.078125 C 2.378906 0.078125 2.148438 0.0507812 1.921875 0 C 1.703125 -0.0390625 1.488281 -0.101562 1.28125 -0.1875 C 1.082031 -0.269531 0.890625 -0.367188 0.703125 -0.484375 C 0.523438 -0.597656 0.367188 -0.726562 0.234375 -0.875 L 0.625 -1.515625 C 0.65625 -1.554688 0.695312 -1.59375 0.75 -1.625 C 0.800781 -1.664062 0.859375 -1.6875 0.921875 -1.6875 C 1.003906 -1.6875 1.09375 -1.648438 1.1875 -1.578125 C 1.289062 -1.503906 1.40625 -1.425781 1.53125 -1.34375 C 1.664062 -1.257812 1.820312 -1.179688 2 -1.109375 C 2.1875 -1.046875 2.40625 -1.015625 2.65625 -1.015625 C 3.03125 -1.015625 3.320312 -1.101562 3.53125 -1.28125 C 3.75 -1.46875 3.859375 -1.734375 3.859375 -2.078125 C 3.859375 -2.265625 3.804688 -2.414062 3.703125 -2.53125 C 3.609375 -2.65625 3.484375 -2.757812 3.328125 -2.84375 C 3.171875 -2.925781 2.992188 -2.992188 2.796875 -3.046875 C 2.597656 -3.109375 2.394531 -3.171875 2.1875 -3.234375 C 1.976562 -3.296875 1.773438 -3.375 1.578125 -3.46875 C 1.378906 -3.5625 1.203125 -3.679688 1.046875 -3.828125 C 0.890625 -3.984375 0.765625 -4.171875 0.671875 -4.390625 C 0.578125 -4.617188 0.53125 -4.898438 0.53125 -5.234375 C 0.53125 -5.492188 0.582031 -5.75 0.6875 -6 C 0.789062 -6.25 0.941406 -6.46875 1.140625 -6.65625 C 1.335938 -6.851562 1.582031 -7.007812 1.875 -7.125 C 2.164062 -7.25 2.503906 -7.3125 2.890625 -7.3125 C 3.316406 -7.3125 3.707031 -7.242188 4.0625 -7.109375 C 4.425781 -6.972656 4.734375 -6.785156 4.984375 -6.546875 Z M 4.65625 -5.921875 "/></g></g></g><g fill="#ffffff" fill-opacity="1"><g transform="translate(121.498218, 277.776925)"><g><path d="M 2.15625 0 L 0.8125 0 L 0.8125 -7.234375 L 2.15625 -7.234375 Z M 2.15625 0 "/></g></g></g><g fill="#ffffff" fill-opacity="1"><g transform="translate(125.87204, 277.776925)"><g><path d="M 4.65625 -5.921875 C 4.613281 -5.847656 4.566406 -5.796875 4.515625 -5.765625 C 4.472656 -5.734375 4.421875 -5.71875 4.359375 -5.71875 C 4.285156 -5.71875 4.207031 -5.742188 4.125 -5.796875 C 4.050781 -5.847656 3.957031 -5.90625 3.84375 -5.96875 C 3.726562 -6.03125 3.59375 -6.085938 3.4375 -6.140625 C 3.289062 -6.191406 3.113281 -6.21875 2.90625 -6.21875 C 2.71875 -6.21875 2.550781 -6.191406 2.40625 -6.140625 C 2.269531 -6.097656 2.15625 -6.035156 2.0625 -5.953125 C 1.96875 -5.878906 1.894531 -5.785156 1.84375 -5.671875 C 1.800781 -5.554688 1.78125 -5.4375 1.78125 -5.3125 C 1.78125 -5.132812 1.828125 -4.988281 1.921875 -4.875 C 2.015625 -4.757812 2.140625 -4.660156 2.296875 -4.578125 C 2.453125 -4.503906 2.628906 -4.4375 2.828125 -4.375 C 3.035156 -4.3125 3.242188 -4.242188 3.453125 -4.171875 C 3.660156 -4.097656 3.863281 -4.015625 4.0625 -3.921875 C 4.257812 -3.828125 4.4375 -3.707031 4.59375 -3.5625 C 4.75 -3.414062 4.875 -3.238281 4.96875 -3.03125 C 5.070312 -2.820312 5.125 -2.566406 5.125 -2.265625 C 5.125 -1.941406 5.066406 -1.632812 4.953125 -1.34375 C 4.835938 -1.0625 4.671875 -0.8125 4.453125 -0.59375 C 4.242188 -0.382812 3.984375 -0.21875 3.671875 -0.09375 C 3.359375 0.0195312 3.003906 0.078125 2.609375 0.078125 C 2.378906 0.078125 2.148438 0.0507812 1.921875 0 C 1.703125 -0.0390625 1.488281 -0.101562 1.28125 -0.1875 C 1.082031 -0.269531 0.890625 -0.367188 0.703125 -0.484375 C 0.523438 -0.597656 0.367188 -0.726562 0.234375 -0.875 L 0.625 -1.515625 C 0.65625 -1.554688 0.695312 -1.59375 0.75 -1.625 C 0.800781 -1.664062 0.859375 -1.6875 0.921875 -1.6875 C 1.003906 -1.6875 1.09375 -1.648438 1.1875 -1.578125 C 1.289062 -1.503906 1.40625 -1.425781 1.53125 -1.34375 C 1.664062 -1.257812 1.820312 -1.179688 2 -1.109375 C 2.1875 -1.046875 2.40625 -1.015625 2.65625 -1.015625 C 3.03125 -1.015625 3.320312 -1.101562 3.53125 -1.28125 C 3.75 -1.46875 3.859375 -1.734375 3.859375 -2.078125 C 3.859375 -2.265625 3.804688 -2.414062 3.703125 -2.53125 C 3.609375 -2.65625 3.484375 -2.757812 3.328125 -2.84375 C 3.171875 -2.925781 2.992188 -2.992188 2.796875 -3.046875 C 2.597656 -3.109375 2.394531 -3.171875 2.1875 -3.234375 C 1.976562 -3.296875 1.773438 -3.375 1.578125 -3.46875 C 1.378906 -3.5625 1.203125 -3.679688 1.046875 -3.828125 C 0.890625 -3.984375 0.765625 -4.171875 0.671875 -4.390625 C 0.578125 -4.617188 0.53125 -4.898438 0.53125 -5.234375 C 0.53125 -5.492188 0.582031 -5.75 0.6875 -6 C 0.789062 -6.25 0.941406 -6.46875 1.140625 -6.65625 C 1.335938 -6.851562 1.582031 -7.007812 1.875 -7.125 C 2.164062 -7.25 2.503906 -7.3125 2.890625 -7.3125 C 3.316406 -7.3125 3.707031 -7.242188 4.0625 -7.109375 C 4.425781 -6.972656 4.734375 -6.785156 4.984375 -6.546875 Z M 4.65625 -5.921875 "/></g></g></g><g fill="#ffffff" fill-opacity="1"><g transform="translate(132.764877, 277.776925)"><g><path d="M 5.859375 -6.125 L 3.671875 -6.125 L 3.671875 0 L 2.328125 0 L 2.328125 -6.125 L 0.15625 -6.125 L 0.15625 -7.234375 L 5.859375 -7.234375 Z M 5.859375 -6.125 "/></g></g></g><g fill="#ffffff" fill-opacity="1"><g transform="translate(140.172504, 277.776925)"><g><path d="M 2.15625 -6.15625 L 2.15625 -4.15625 L 4.6875 -4.15625 L 4.6875 -3.125 L 2.15625 -3.125 L 2.15625 -1.078125 L 5.359375 -1.078125 L 5.359375 0 L 0.8125 0 L 0.8125 -7.234375 L 5.359375 -7.234375 L 5.359375 -6.15625 Z M 2.15625 -6.15625 "/></g></g></g><g fill="#ffffff" fill-opacity="1"><g transform="translate(147.33024, 277.776925)"><g><path d="M 8.640625 -7.234375 L 8.640625 0 L 7.453125 0 L 7.453125 -4.671875 C 7.453125 -4.859375 7.460938 -5.0625 7.484375 -5.28125 L 5.3125 -1.171875 C 5.207031 -0.972656 5.046875 -0.875 4.828125 -0.875 L 4.640625 -0.875 C 4.421875 -0.875 4.265625 -0.972656 4.171875 -1.171875 L 1.953125 -5.296875 C 1.960938 -5.179688 1.96875 -5.070312 1.96875 -4.96875 C 1.976562 -4.863281 1.984375 -4.765625 1.984375 -4.671875 L 1.984375 0 L 0.8125 0 L 0.8125 -7.234375 L 1.8125 -7.234375 C 1.875 -7.234375 1.925781 -7.226562 1.96875 -7.21875 C 2.019531 -7.21875 2.0625 -7.210938 2.09375 -7.203125 C 2.125 -7.191406 2.15625 -7.171875 2.1875 -7.140625 C 2.21875 -7.109375 2.242188 -7.066406 2.265625 -7.015625 L 4.4375 -3 C 4.488281 -2.894531 4.539062 -2.785156 4.59375 -2.671875 C 4.644531 -2.554688 4.691406 -2.4375 4.734375 -2.3125 C 4.785156 -2.4375 4.832031 -2.554688 4.875 -2.671875 C 4.925781 -2.785156 4.984375 -2.898438 5.046875 -3.015625 L 7.171875 -7.015625 C 7.203125 -7.066406 7.234375 -7.109375 7.265625 -7.140625 C 7.296875 -7.171875 7.328125 -7.191406 7.359375 -7.203125 C 7.390625 -7.210938 7.425781 -7.21875 7.46875 -7.21875 C 7.519531 -7.226562 7.570312 -7.234375 7.625 -7.234375 Z M 8.640625 -7.234375 "/></g></g></g><g fill="#ffffff" fill-opacity="1"><g transform="translate(158.186511, 277.776925)"><g><path d="M 4.625 -2.734375 L 3.75 -5.140625 C 3.707031 -5.242188 3.660156 -5.367188 3.609375 -5.515625 C 3.566406 -5.660156 3.519531 -5.816406 3.46875 -5.984375 C 3.425781 -5.816406 3.378906 -5.660156 3.328125 -5.515625 C 3.285156 -5.367188 3.242188 -5.238281 3.203125 -5.125 L 2.328125 -2.734375 Z M 7 0 L 5.953125 0 C 5.835938 0 5.742188 -0.0234375 5.671875 -0.078125 C 5.597656 -0.140625 5.546875 -0.21875 5.515625 -0.3125 L 4.96875 -1.78125 L 1.96875 -1.78125 L 1.4375 -0.3125 C 1.40625 -0.226562 1.351562 -0.15625 1.28125 -0.09375 C 1.207031 -0.03125 1.113281 0 1 0 L -0.0625 0 L 2.796875 -7.234375 L 4.15625 -7.234375 Z M 7 0 "/></g></g></g><g fill="#ffffff" fill-opacity="1"><g transform="translate(166.538769, 277.776925)"><g/></g></g><g fill="#ffffff" fill-opacity="1"><g transform="translate(170.377809, 277.776925)"><g><path d="M 2.15625 0 L 0.8125 0 L 0.8125 -7.234375 L 2.15625 -7.234375 Z M 2.15625 0 "/></g></g></g><g fill="#ffffff" fill-opacity="1"><g transform="translate(174.751632, 277.776925)"><g><path d="M 6.90625 -7.234375 L 6.90625 0 L 6.203125 0 C 6.097656 0 6.007812 -0.015625 5.9375 -0.046875 C 5.863281 -0.0859375 5.796875 -0.148438 5.734375 -0.234375 L 1.953125 -5.046875 C 1.972656 -4.828125 1.984375 -4.625 1.984375 -4.4375 L 1.984375 0 L 0.8125 0 L 0.8125 -7.234375 L 1.515625 -7.234375 C 1.566406 -7.234375 1.613281 -7.226562 1.65625 -7.21875 C 1.695312 -7.21875 1.734375 -7.207031 1.765625 -7.1875 C 1.796875 -7.175781 1.828125 -7.15625 1.859375 -7.125 C 1.890625 -7.09375 1.921875 -7.054688 1.953125 -7.015625 L 5.75 -2.171875 C 5.738281 -2.285156 5.726562 -2.398438 5.71875 -2.515625 C 5.71875 -2.628906 5.71875 -2.734375 5.71875 -2.828125 L 5.71875 -7.234375 Z M 6.90625 -7.234375 "/></g></g></g><g fill="#ffffff" fill-opacity="1"><g transform="translate(183.863595, 277.776925)"><g><path d="M 5.859375 -6.125 L 3.671875 -6.125 L 3.671875 0 L 2.328125 0 L 2.328125 -6.125 L 0.15625 -6.125 L 0.15625 -7.234375 L 5.859375 -7.234375 Z M 5.859375 -6.125 "/></g></g></g><g fill="#ffffff" fill-opacity="1"><g transform="translate(191.271223, 277.776925)"><g><path d="M 2.15625 -6.15625 L 2.15625 -4.15625 L 4.6875 -4.15625 L 4.6875 -3.125 L 2.15625 -3.125 L 2.15625 -1.078125 L 5.359375 -1.078125 L 5.359375 0 L 0.8125 0 L 0.8125 -7.234375 L 5.359375 -7.234375 L 5.359375 -6.15625 Z M 2.15625 -6.15625 "/></g></g></g><g fill="#ffffff" fill-opacity="1"><g transform="translate(198.428959, 277.776925)"><g><path d="M 6.765625 -3.625 L 6.765625 -0.703125 C 6.398438 -0.429688 6.007812 -0.234375 5.59375 -0.109375 C 5.175781 0.015625 4.734375 0.078125 4.265625 0.078125 C 3.671875 0.078125 3.132812 -0.0078125 2.65625 -0.1875 C 2.175781 -0.375 1.765625 -0.628906 1.421875 -0.953125 C 1.085938 -1.285156 0.828125 -1.675781 0.640625 -2.125 C 0.460938 -2.582031 0.375 -3.078125 0.375 -3.609375 C 0.375 -4.160156 0.460938 -4.660156 0.640625 -5.109375 C 0.816406 -5.566406 1.066406 -5.957031 1.390625 -6.28125 C 1.710938 -6.601562 2.101562 -6.851562 2.5625 -7.03125 C 3.03125 -7.21875 3.554688 -7.3125 4.140625 -7.3125 C 4.429688 -7.3125 4.703125 -7.285156 4.953125 -7.234375 C 5.210938 -7.191406 5.453125 -7.128906 5.671875 -7.046875 C 5.890625 -6.960938 6.085938 -6.863281 6.265625 -6.75 C 6.441406 -6.632812 6.609375 -6.503906 6.765625 -6.359375 L 6.375 -5.75 C 6.3125 -5.65625 6.234375 -5.597656 6.140625 -5.578125 C 6.046875 -5.554688 5.941406 -5.582031 5.828125 -5.65625 C 5.710938 -5.71875 5.597656 -5.78125 5.484375 -5.84375 C 5.378906 -5.90625 5.257812 -5.957031 5.125 -6 C 4.988281 -6.050781 4.835938 -6.09375 4.671875 -6.125 C 4.503906 -6.15625 4.3125 -6.171875 4.09375 -6.171875 C 3.738281 -6.171875 3.414062 -6.109375 3.125 -5.984375 C 2.832031 -5.867188 2.582031 -5.695312 2.375 -5.46875 C 2.175781 -5.25 2.019531 -4.976562 1.90625 -4.65625 C 1.800781 -4.34375 1.75 -3.992188 1.75 -3.609375 C 1.75 -3.203125 1.804688 -2.832031 1.921875 -2.5 C 2.046875 -2.175781 2.210938 -1.898438 2.421875 -1.671875 C 2.640625 -1.453125 2.898438 -1.28125 3.203125 -1.15625 C 3.503906 -1.039062 3.84375 -0.984375 4.21875 -0.984375 C 4.488281 -0.984375 4.726562 -1.007812 4.9375 -1.0625 C 5.144531 -1.125 5.347656 -1.207031 5.546875 -1.3125 L 5.546875 -2.609375 L 4.640625 -2.609375 C 4.554688 -2.609375 4.488281 -2.632812 4.4375 -2.6875 C 4.382812 -2.738281 4.359375 -2.796875 4.359375 -2.859375 L 4.359375 -3.625 Z M 6.765625 -3.625 "/></g></g></g><g fill="#ffffff" fill-opacity="1"><g transform="translate(207.09609, 277.776925)"><g><path d="M 2.984375 -3.796875 C 3.242188 -3.796875 3.46875 -3.828125 3.65625 -3.890625 C 3.84375 -3.953125 3.992188 -4.035156 4.109375 -4.140625 C 4.234375 -4.253906 4.328125 -4.390625 4.390625 -4.546875 C 4.453125 -4.703125 4.484375 -4.867188 4.484375 -5.046875 C 4.484375 -5.410156 4.359375 -5.691406 4.109375 -5.890625 C 3.867188 -6.085938 3.503906 -6.1875 3.015625 -6.1875 L 2.15625 -6.1875 L 2.15625 -3.796875 Z M 6.453125 0 L 5.234375 0 C 5.003906 0 4.835938 -0.0859375 4.734375 -0.265625 L 3.21875 -2.578125 C 3.15625 -2.671875 3.085938 -2.734375 3.015625 -2.765625 C 2.953125 -2.804688 2.851562 -2.828125 2.71875 -2.828125 L 2.15625 -2.828125 L 2.15625 0 L 0.8125 0 L 0.8125 -7.234375 L 3.015625 -7.234375 C 3.503906 -7.234375 3.921875 -7.179688 4.265625 -7.078125 C 4.617188 -6.972656 4.90625 -6.828125 5.125 -6.640625 C 5.351562 -6.460938 5.519531 -6.242188 5.625 -5.984375 C 5.738281 -5.734375 5.796875 -5.457031 5.796875 -5.15625 C 5.796875 -4.90625 5.757812 -4.671875 5.6875 -4.453125 C 5.613281 -4.242188 5.507812 -4.050781 5.375 -3.875 C 5.238281 -3.695312 5.070312 -3.539062 4.875 -3.40625 C 4.675781 -3.269531 4.453125 -3.164062 4.203125 -3.09375 C 4.285156 -3.039062 4.363281 -2.976562 4.4375 -2.90625 C 4.507812 -2.84375 4.578125 -2.765625 4.640625 -2.671875 Z M 6.453125 0 "/></g></g></g><g fill="#ffffff" fill-opacity="1"><g transform="translate(214.933541, 277.776925)"><g><path d="M 4.625 -2.734375 L 3.75 -5.140625 C 3.707031 -5.242188 3.660156 -5.367188 3.609375 -5.515625 C 3.566406 -5.660156 3.519531 -5.816406 3.46875 -5.984375 C 3.425781 -5.816406 3.378906 -5.660156 3.328125 -5.515625 C 3.285156 -5.367188 3.242188 -5.238281 3.203125 -5.125 L 2.328125 -2.734375 Z M 7 0 L 5.953125 0 C 5.835938 0 5.742188 -0.0234375 5.671875 -0.078125 C 5.597656 -0.140625 5.546875 -0.21875 5.515625 -0.3125 L 4.96875 -1.78125 L 1.96875 -1.78125 L 1.4375 -0.3125 C 1.40625 -0.226562 1.351562 -0.15625 1.28125 -0.09375 C 1.207031 -0.03125 1.113281 0 1 0 L -0.0625 0 L 2.796875 -7.234375 L 4.15625 -7.234375 Z M 7 0 "/></g></g></g><g fill="#ffffff" fill-opacity="1"><g transform="translate(223.285794, 277.776925)"><g><path d="M 7.21875 -3.609375 C 7.21875 -3.078125 7.128906 -2.585938 6.953125 -2.140625 C 6.773438 -1.703125 6.523438 -1.320312 6.203125 -1 C 5.890625 -0.6875 5.507812 -0.441406 5.0625 -0.265625 C 4.613281 -0.0859375 4.113281 0 3.5625 0 L 0.8125 0 L 0.8125 -7.234375 L 3.5625 -7.234375 C 4.113281 -7.234375 4.613281 -7.140625 5.0625 -6.953125 C 5.507812 -6.773438 5.890625 -6.523438 6.203125 -6.203125 C 6.523438 -5.890625 6.773438 -5.507812 6.953125 -5.0625 C 7.128906 -4.625 7.21875 -4.140625 7.21875 -3.609375 Z M 5.84375 -3.609375 C 5.84375 -4.003906 5.789062 -4.359375 5.6875 -4.671875 C 5.582031 -4.992188 5.429688 -5.265625 5.234375 -5.484375 C 5.035156 -5.703125 4.796875 -5.867188 4.515625 -5.984375 C 4.234375 -6.097656 3.914062 -6.15625 3.5625 -6.15625 L 2.15625 -6.15625 L 2.15625 -1.0625 L 3.5625 -1.0625 C 3.914062 -1.0625 4.234375 -1.117188 4.515625 -1.234375 C 4.796875 -1.359375 5.035156 -1.53125 5.234375 -1.75 C 5.429688 -1.96875 5.582031 -2.234375 5.6875 -2.546875 C 5.789062 -2.859375 5.84375 -3.210938 5.84375 -3.609375 Z M 5.84375 -3.609375 "/></g></g></g><g fill="#ffffff" fill-opacity="1"><g transform="translate(232.297786, 277.776925)"><g><path d="M 7.703125 -3.609375 C 7.703125 -3.078125 7.613281 -2.585938 7.4375 -2.140625 C 7.257812 -1.691406 7.007812 -1.300781 6.6875 -0.96875 C 6.375 -0.632812 5.988281 -0.375 5.53125 -0.1875 C 5.082031 -0.0078125 4.585938 0.078125 4.046875 0.078125 C 3.492188 0.078125 2.992188 -0.0078125 2.546875 -0.1875 C 2.097656 -0.375 1.710938 -0.632812 1.390625 -0.96875 C 1.066406 -1.300781 0.816406 -1.691406 0.640625 -2.140625 C 0.460938 -2.585938 0.375 -3.078125 0.375 -3.609375 C 0.375 -4.140625 0.460938 -4.628906 0.640625 -5.078125 C 0.816406 -5.535156 1.066406 -5.925781 1.390625 -6.25 C 1.710938 -6.582031 2.097656 -6.84375 2.546875 -7.03125 C 2.992188 -7.21875 3.492188 -7.3125 4.046875 -7.3125 C 4.410156 -7.3125 4.753906 -7.269531 5.078125 -7.1875 C 5.398438 -7.101562 5.695312 -6.984375 5.96875 -6.828125 C 6.238281 -6.671875 6.476562 -6.476562 6.6875 -6.25 C 6.90625 -6.03125 7.085938 -5.785156 7.234375 -5.515625 C 7.390625 -5.242188 7.503906 -4.945312 7.578125 -4.625 C 7.660156 -4.300781 7.703125 -3.960938 7.703125 -3.609375 Z M 6.328125 -3.609375 C 6.328125 -4.003906 6.269531 -4.359375 6.15625 -4.671875 C 6.050781 -4.992188 5.898438 -5.265625 5.703125 -5.484375 C 5.515625 -5.703125 5.273438 -5.867188 4.984375 -5.984375 C 4.703125 -6.109375 4.390625 -6.171875 4.046875 -6.171875 C 3.691406 -6.171875 3.375 -6.109375 3.09375 -5.984375 C 2.8125 -5.867188 2.566406 -5.703125 2.359375 -5.484375 C 2.160156 -5.265625 2.007812 -4.992188 1.90625 -4.671875 C 1.800781 -4.359375 1.75 -4.003906 1.75 -3.609375 C 1.75 -3.210938 1.800781 -2.859375 1.90625 -2.546875 C 2.007812 -2.234375 2.160156 -1.96875 2.359375 -1.75 C 2.566406 -1.53125 2.8125 -1.359375 3.09375 -1.234375 C 3.375 -1.117188 3.691406 -1.0625 4.046875 -1.0625 C 4.390625 -1.0625 4.703125 -1.117188 4.984375 -1.234375 C 5.273438 -1.359375 5.515625 -1.53125 5.703125 -1.75 C 5.898438 -1.96875 6.050781 -2.234375 6.15625 -2.546875 C 6.269531 -2.859375 6.328125 -3.210938 6.328125 -3.609375 Z M 6.328125 -3.609375 "/></g></g></g><g fill="#ffffff" fill-opacity="1"><g transform="translate(241.784594, 277.776925)"><g/></g></g><g fill="#ffffff" fill-opacity="1"><g transform="translate(245.623629, 277.776925)"><g><path d="M 7.21875 -3.609375 C 7.21875 -3.078125 7.128906 -2.585938 6.953125 -2.140625 C 6.773438 -1.703125 6.523438 -1.320312 6.203125 -1 C 5.890625 -0.6875 5.507812 -0.441406 5.0625 -0.265625 C 4.613281 -0.0859375 4.113281 0 3.5625 0 L 0.8125 0 L 0.8125 -7.234375 L 3.5625 -7.234375 C 4.113281 -7.234375 4.613281 -7.140625 5.0625 -6.953125 C 5.507812 -6.773438 5.890625 -6.523438 6.203125 -6.203125 C 6.523438 -5.890625 6.773438 -5.507812 6.953125 -5.0625 C 7.128906 -4.625 7.21875 -4.140625 7.21875 -3.609375 Z M 5.84375 -3.609375 C 5.84375 -4.003906 5.789062 -4.359375 5.6875 -4.671875 C 5.582031 -4.992188 5.429688 -5.265625 5.234375 -5.484375 C 5.035156 -5.703125 4.796875 -5.867188 4.515625 -5.984375 C 4.234375 -6.097656 3.914062 -6.15625 3.5625 -6.15625 L 2.15625 -6.15625 L 2.15625 -1.0625 L 3.5625 -1.0625 C 3.914062 -1.0625 4.234375 -1.117188 4.515625 -1.234375 C 4.796875 -1.359375 5.035156 -1.53125 5.234375 -1.75 C 5.429688 -1.96875 5.582031 -2.234375 5.6875 -2.546875 C 5.789062 -2.859375 5.84375 -3.210938 5.84375 -3.609375 Z M 5.84375 -3.609375 "/></g></g></g><g fill="#ffffff" fill-opacity="1"><g transform="translate(254.635622, 277.776925)"><g><path d="M 2.15625 -6.15625 L 2.15625 -4.15625 L 4.6875 -4.15625 L 4.6875 -3.125 L 2.15625 -3.125 L 2.15625 -1.078125 L 5.359375 -1.078125 L 5.359375 0 L 0.8125 0 L 0.8125 -7.234375 L 5.359375 -7.234375 L 5.359375 -6.15625 Z M 2.15625 -6.15625 "/></g></g></g><g fill="#ffffff" fill-opacity="1"><g transform="translate(101.808506, 291.276924)"><g><path d="M 5.765625 -1.703125 C 5.835938 -1.703125 5.90625 -1.675781 5.96875 -1.625 L 6.5 -1.046875 C 6.207031 -0.679688 5.84375 -0.398438 5.40625 -0.203125 C 4.976562 -0.015625 4.46875 0.078125 3.875 0.078125 C 3.332031 0.078125 2.847656 -0.0078125 2.421875 -0.1875 C 1.992188 -0.375 1.628906 -0.628906 1.328125 -0.953125 C 1.023438 -1.285156 0.789062 -1.675781 0.625 -2.125 C 0.46875 -2.582031 0.390625 -3.078125 0.390625 -3.609375 C 0.390625 -4.160156 0.472656 -4.660156 0.640625 -5.109375 C 0.816406 -5.554688 1.0625 -5.941406 1.375 -6.265625 C 1.6875 -6.597656 2.0625 -6.851562 2.5 -7.03125 C 2.9375 -7.21875 3.421875 -7.3125 3.953125 -7.3125 C 4.484375 -7.3125 4.953125 -7.222656 5.359375 -7.046875 C 5.765625 -6.878906 6.113281 -6.65625 6.40625 -6.375 L 5.953125 -5.75 C 5.921875 -5.707031 5.882812 -5.671875 5.84375 -5.640625 C 5.800781 -5.609375 5.742188 -5.59375 5.671875 -5.59375 C 5.617188 -5.59375 5.566406 -5.609375 5.515625 -5.640625 C 5.460938 -5.671875 5.40625 -5.707031 5.34375 -5.75 C 5.28125 -5.789062 5.207031 -5.832031 5.125 -5.875 C 5.039062 -5.925781 4.941406 -5.972656 4.828125 -6.015625 C 4.722656 -6.054688 4.597656 -6.09375 4.453125 -6.125 C 4.304688 -6.15625 4.140625 -6.171875 3.953125 -6.171875 C 3.628906 -6.171875 3.332031 -6.109375 3.0625 -5.984375 C 2.789062 -5.867188 2.554688 -5.703125 2.359375 -5.484375 C 2.171875 -5.273438 2.023438 -5.007812 1.921875 -4.6875 C 1.816406 -4.375 1.765625 -4.015625 1.765625 -3.609375 C 1.765625 -3.203125 1.820312 -2.84375 1.9375 -2.53125 C 2.050781 -2.21875 2.203125 -1.953125 2.390625 -1.734375 C 2.585938 -1.515625 2.820312 -1.347656 3.09375 -1.234375 C 3.363281 -1.117188 3.648438 -1.0625 3.953125 -1.0625 C 4.140625 -1.0625 4.304688 -1.070312 4.453125 -1.09375 C 4.597656 -1.113281 4.734375 -1.144531 4.859375 -1.1875 C 4.984375 -1.226562 5.101562 -1.28125 5.21875 -1.34375 C 5.332031 -1.414062 5.441406 -1.503906 5.546875 -1.609375 C 5.578125 -1.640625 5.609375 -1.660156 5.640625 -1.671875 C 5.679688 -1.691406 5.722656 -1.703125 5.765625 -1.703125 Z M 5.765625 -1.703125 "/></g></g></g><g fill="#ffffff" fill-opacity="1"><g transform="translate(109.830899, 291.276924)"><g><path d="M 7.703125 -3.609375 C 7.703125 -3.078125 7.613281 -2.585938 7.4375 -2.140625 C 7.257812 -1.691406 7.007812 -1.300781 6.6875 -0.96875 C 6.375 -0.632812 5.988281 -0.375 5.53125 -0.1875 C 5.082031 -0.0078125 4.585938 0.078125 4.046875 0.078125 C 3.492188 0.078125 2.992188 -0.0078125 2.546875 -0.1875 C 2.097656 -0.375 1.710938 -0.632812 1.390625 -0.96875 C 1.066406 -1.300781 0.816406 -1.691406 0.640625 -2.140625 C 0.460938 -2.585938 0.375 -3.078125 0.375 -3.609375 C 0.375 -4.140625 0.460938 -4.628906 0.640625 -5.078125 C 0.816406 -5.535156 1.066406 -5.925781 1.390625 -6.25 C 1.710938 -6.582031 2.097656 -6.84375 2.546875 -7.03125 C 2.992188 -7.21875 3.492188 -7.3125 4.046875 -7.3125 C 4.410156 -7.3125 4.753906 -7.269531 5.078125 -7.1875 C 5.398438 -7.101562 5.695312 -6.984375 5.96875 -6.828125 C 6.238281 -6.671875 6.476562 -6.476562 6.6875 -6.25 C 6.90625 -6.03125 7.085938 -5.785156 7.234375 -5.515625 C 7.390625 -5.242188 7.503906 -4.945312 7.578125 -4.625 C 7.660156 -4.300781 7.703125 -3.960938 7.703125 -3.609375 Z M 6.328125 -3.609375 C 6.328125 -4.003906 6.269531 -4.359375 6.15625 -4.671875 C 6.050781 -4.992188 5.898438 -5.265625 5.703125 -5.484375 C 5.515625 -5.703125 5.273438 -5.867188 4.984375 -5.984375 C 4.703125 -6.109375 4.390625 -6.171875 4.046875 -6.171875 C 3.691406 -6.171875 3.375 -6.109375 3.09375 -5.984375 C 2.8125 -5.867188 2.566406 -5.703125 2.359375 -5.484375 C 2.160156 -5.265625 2.007812 -4.992188 1.90625 -4.671875 C 1.800781 -4.359375 1.75 -4.003906 1.75 -3.609375 C 1.75 -3.210938 1.800781 -2.859375 1.90625 -2.546875 C 2.007812 -2.234375 2.160156 -1.96875 2.359375 -1.75 C 2.566406 -1.53125 2.8125 -1.359375 3.09375 -1.234375 C 3.375 -1.117188 3.691406 -1.0625 4.046875 -1.0625 C 4.390625 -1.0625 4.703125 -1.117188 4.984375 -1.234375 C 5.273438 -1.359375 5.515625 -1.53125 5.703125 -1.75 C 5.898438 -1.96875 6.050781 -2.234375 6.15625 -2.546875 C 6.269531 -2.859375 6.328125 -3.210938 6.328125 -3.609375 Z M 6.328125 -3.609375 "/></g></g></g><g fill="#ffffff" fill-opacity="1"><g transform="translate(119.317711, 291.276924)"><g><path d="M 8.640625 -7.234375 L 8.640625 0 L 7.453125 0 L 7.453125 -4.671875 C 7.453125 -4.859375 7.460938 -5.0625 7.484375 -5.28125 L 5.3125 -1.171875 C 5.207031 -0.972656 5.046875 -0.875 4.828125 -0.875 L 4.640625 -0.875 C 4.421875 -0.875 4.265625 -0.972656 4.171875 -1.171875 L 1.953125 -5.296875 C 1.960938 -5.179688 1.96875 -5.070312 1.96875 -4.96875 C 1.976562 -4.863281 1.984375 -4.765625 1.984375 -4.671875 L 1.984375 0 L 0.8125 0 L 0.8125 -7.234375 L 1.8125 -7.234375 C 1.875 -7.234375 1.925781 -7.226562 1.96875 -7.21875 C 2.019531 -7.21875 2.0625 -7.210938 2.09375 -7.203125 C 2.125 -7.191406 2.15625 -7.171875 2.1875 -7.140625 C 2.21875 -7.109375 2.242188 -7.066406 2.265625 -7.015625 L 4.4375 -3 C 4.488281 -2.894531 4.539062 -2.785156 4.59375 -2.671875 C 4.644531 -2.554688 4.691406 -2.4375 4.734375 -2.3125 C 4.785156 -2.4375 4.832031 -2.554688 4.875 -2.671875 C 4.925781 -2.785156 4.984375 -2.898438 5.046875 -3.015625 L 7.171875 -7.015625 C 7.203125 -7.066406 7.234375 -7.109375 7.265625 -7.140625 C 7.296875 -7.171875 7.328125 -7.191406 7.359375 -7.203125 C 7.390625 -7.210938 7.425781 -7.21875 7.46875 -7.21875 C 7.519531 -7.226562 7.570312 -7.234375 7.625 -7.234375 Z M 8.640625 -7.234375 "/></g></g></g><g fill="#ffffff" fill-opacity="1"><g transform="translate(130.173979, 291.276924)"><g><path d="M 3.71875 -1.078125 C 3.976562 -1.078125 4.207031 -1.117188 4.40625 -1.203125 C 4.613281 -1.296875 4.785156 -1.421875 4.921875 -1.578125 C 5.066406 -1.734375 5.175781 -1.921875 5.25 -2.140625 C 5.320312 -2.367188 5.359375 -2.625 5.359375 -2.90625 L 5.359375 -7.234375 L 6.703125 -7.234375 L 6.703125 -2.90625 C 6.703125 -2.46875 6.632812 -2.066406 6.5 -1.703125 C 6.363281 -1.335938 6.164062 -1.019531 5.90625 -0.75 C 5.644531 -0.488281 5.328125 -0.285156 4.953125 -0.140625 C 4.585938 0.00390625 4.175781 0.078125 3.71875 0.078125 C 3.25 0.078125 2.828125 0.00390625 2.453125 -0.140625 C 2.085938 -0.285156 1.773438 -0.488281 1.515625 -0.75 C 1.253906 -1.019531 1.054688 -1.335938 0.921875 -1.703125 C 0.785156 -2.066406 0.71875 -2.46875 0.71875 -2.90625 L 0.71875 -7.234375 L 2.0625 -7.234375 L 2.0625 -2.90625 C 2.0625 -2.625 2.097656 -2.367188 2.171875 -2.140625 C 2.242188 -1.921875 2.347656 -1.734375 2.484375 -1.578125 C 2.628906 -1.421875 2.804688 -1.296875 3.015625 -1.203125 C 3.222656 -1.117188 3.457031 -1.078125 3.71875 -1.078125 Z M 3.71875 -1.078125 "/></g></g></g><g fill="#ffffff" fill-opacity="1"><g transform="translate(139.006054, 291.276924)"><g><path d="M 6.90625 -7.234375 L 6.90625 0 L 6.203125 0 C 6.097656 0 6.007812 -0.015625 5.9375 -0.046875 C 5.863281 -0.0859375 5.796875 -0.148438 5.734375 -0.234375 L 1.953125 -5.046875 C 1.972656 -4.828125 1.984375 -4.625 1.984375 -4.4375 L 1.984375 0 L 0.8125 0 L 0.8125 -7.234375 L 1.515625 -7.234375 C 1.566406 -7.234375 1.613281 -7.226562 1.65625 -7.21875 C 1.695312 -7.21875 1.734375 -7.207031 1.765625 -7.1875 C 1.796875 -7.175781 1.828125 -7.15625 1.859375 -7.125 C 1.890625 -7.09375 1.921875 -7.054688 1.953125 -7.015625 L 5.75 -2.171875 C 5.738281 -2.285156 5.726562 -2.398438 5.71875 -2.515625 C 5.71875 -2.628906 5.71875 -2.734375 5.71875 -2.828125 L 5.71875 -7.234375 Z M 6.90625 -7.234375 "/></g></g></g><g fill="#ffffff" fill-opacity="1"><g transform="translate(148.118017, 291.276924)"><g><path d="M 2.15625 0 L 0.8125 0 L 0.8125 -7.234375 L 2.15625 -7.234375 Z M 2.15625 0 "/></g></g></g><g fill="#ffffff" fill-opacity="1"><g transform="translate(152.491839, 291.276924)"><g><path d="M 5.765625 -1.703125 C 5.835938 -1.703125 5.90625 -1.675781 5.96875 -1.625 L 6.5 -1.046875 C 6.207031 -0.679688 5.84375 -0.398438 5.40625 -0.203125 C 4.976562 -0.015625 4.46875 0.078125 3.875 0.078125 C 3.332031 0.078125 2.847656 -0.0078125 2.421875 -0.1875 C 1.992188 -0.375 1.628906 -0.628906 1.328125 -0.953125 C 1.023438 -1.285156 0.789062 -1.675781 0.625 -2.125 C 0.46875 -2.582031 0.390625 -3.078125 0.390625 -3.609375 C 0.390625 -4.160156 0.472656 -4.660156 0.640625 -5.109375 C 0.816406 -5.554688 1.0625 -5.941406 1.375 -6.265625 C 1.6875 -6.597656 2.0625 -6.851562 2.5 -7.03125 C 2.9375 -7.21875 3.421875 -7.3125 3.953125 -7.3125 C 4.484375 -7.3125 4.953125 -7.222656 5.359375 -7.046875 C 5.765625 -6.878906 6.113281 -6.65625 6.40625 -6.375 L 5.953125 -5.75 C 5.921875 -5.707031 5.882812 -5.671875 5.84375 -5.640625 C 5.800781 -5.609375 5.742188 -5.59375 5.671875 -5.59375 C 5.617188 -5.59375 5.566406 -5.609375 5.515625 -5.640625 C 5.460938 -5.671875 5.40625 -5.707031 5.34375 -5.75 C 5.28125 -5.789062 5.207031 -5.832031 5.125 -5.875 C 5.039062 -5.925781 4.941406 -5.972656 4.828125 -6.015625 C 4.722656 -6.054688 4.597656 -6.09375 4.453125 -6.125 C 4.304688 -6.15625 4.140625 -6.171875 3.953125 -6.171875 C 3.628906 -6.171875 3.332031 -6.109375 3.0625 -5.984375 C 2.789062 -5.867188 2.554688 -5.703125 2.359375 -5.484375 C 2.171875 -5.273438 2.023438 -5.007812 1.921875 -4.6875 C 1.816406 -4.375 1.765625 -4.015625 1.765625 -3.609375 C 1.765625 -3.203125 1.820312 -2.84375 1.9375 -2.53125 C 2.050781 -2.21875 2.203125 -1.953125 2.390625 -1.734375 C 2.585938 -1.515625 2.820312 -1.347656 3.09375 -1.234375 C 3.363281 -1.117188 3.648438 -1.0625 3.953125 -1.0625 C 4.140625 -1.0625 4.304688 -1.070312 4.453125 -1.09375 C 4.597656 -1.113281 4.734375 -1.144531 4.859375 -1.1875 C 4.984375 -1.226562 5.101562 -1.28125 5.21875 -1.34375 C 5.332031 -1.414062 5.441406 -1.503906 5.546875 -1.609375 C 5.578125 -1.640625 5.609375 -1.660156 5.640625 -1.671875 C 5.679688 -1.691406 5.722656 -1.703125 5.765625 -1.703125 Z M 5.765625 -1.703125 "/></g></g></g><g fill="#ffffff" fill-opacity="1"><g transform="translate(160.514233, 291.276924)"><g><path d="M 4.625 -2.734375 L 3.75 -5.140625 C 3.707031 -5.242188 3.660156 -5.367188 3.609375 -5.515625 C 3.566406 -5.660156 3.519531 -5.816406 3.46875 -5.984375 C 3.425781 -5.816406 3.378906 -5.660156 3.328125 -5.515625 C 3.285156 -5.367188 3.242188 -5.238281 3.203125 -5.125 L 2.328125 -2.734375 Z M 7 0 L 5.953125 0 C 5.835938 0 5.742188 -0.0234375 5.671875 -0.078125 C 5.597656 -0.140625 5.546875 -0.21875 5.515625 -0.3125 L 4.96875 -1.78125 L 1.96875 -1.78125 L 1.4375 -0.3125 C 1.40625 -0.226562 1.351562 -0.15625 1.28125 -0.09375 C 1.207031 -0.03125 1.113281 0 1 0 L -0.0625 0 L 2.796875 -7.234375 L 4.15625 -7.234375 Z M 7 0 "/></g></g></g><g fill="#ffffff" fill-opacity="1"><g transform="translate(168.866491, 291.276924)"><g><path d="M 6.5 -1.046875 C 6.226562 -0.710938 5.90625 -0.453125 5.53125 -0.265625 C 5.15625 -0.078125 4.710938 0.03125 4.203125 0.0625 L 4.140625 0.3125 C 4.453125 0.382812 4.671875 0.484375 4.796875 0.609375 C 4.921875 0.734375 4.984375 0.878906 4.984375 1.046875 C 4.984375 1.160156 4.953125 1.257812 4.890625 1.34375 C 4.835938 1.4375 4.753906 1.515625 4.640625 1.578125 C 4.535156 1.648438 4.40625 1.703125 4.25 1.734375 C 4.101562 1.765625 3.941406 1.78125 3.765625 1.78125 C 3.628906 1.78125 3.5 1.769531 3.375 1.75 C 3.257812 1.726562 3.144531 1.703125 3.03125 1.671875 L 3.140625 1.28125 C 3.160156 1.207031 3.210938 1.171875 3.296875 1.171875 C 3.335938 1.171875 3.382812 1.179688 3.4375 1.203125 C 3.5 1.234375 3.582031 1.25 3.6875 1.25 C 3.789062 1.25 3.867188 1.226562 3.921875 1.1875 C 3.984375 1.144531 4.015625 1.09375 4.015625 1.03125 C 4.015625 0.9375 3.953125 0.867188 3.828125 0.828125 C 3.710938 0.785156 3.53125 0.742188 3.28125 0.703125 L 3.5 0.0625 C 3.019531 0.0195312 2.585938 -0.0976562 2.203125 -0.296875 C 1.816406 -0.492188 1.488281 -0.753906 1.21875 -1.078125 C 0.945312 -1.398438 0.738281 -1.773438 0.59375 -2.203125 C 0.457031 -2.640625 0.390625 -3.109375 0.390625 -3.609375 C 0.390625 -4.160156 0.472656 -4.660156 0.640625 -5.109375 C 0.816406 -5.554688 1.0625 -5.941406 1.375 -6.265625 C 1.6875 -6.597656 2.0625 -6.851562 2.5 -7.03125 C 2.9375 -7.21875 3.421875 -7.3125 3.953125 -7.3125 C 4.484375 -7.3125 4.953125 -7.222656 5.359375 -7.046875 C 5.765625 -6.878906 6.113281 -6.65625 6.40625 -6.375 L 5.953125 -5.75 C 5.921875 -5.707031 5.882812 -5.671875 5.84375 -5.640625 C 5.800781 -5.609375 5.742188 -5.59375 5.671875 -5.59375 C 5.617188 -5.59375 5.566406 -5.609375 5.515625 -5.640625 C 5.460938 -5.671875 5.40625 -5.707031 5.34375 -5.75 C 5.28125 -5.789062 5.207031 -5.832031 5.125 -5.875 C 5.039062 -5.925781 4.941406 -5.972656 4.828125 -6.015625 C 4.722656 -6.054688 4.597656 -6.09375 4.453125 -6.125 C 4.304688 -6.15625 4.140625 -6.171875 3.953125 -6.171875 C 3.628906 -6.171875 3.332031 -6.109375 3.0625 -5.984375 C 2.789062 -5.867188 2.554688 -5.703125 2.359375 -5.484375 C 2.171875 -5.273438 2.023438 -5.007812 1.921875 -4.6875 C 1.816406 -4.375 1.765625 -4.015625 1.765625 -3.609375 C 1.765625 -3.203125 1.820312 -2.84375 1.9375 -2.53125 C 2.050781 -2.21875 2.203125 -1.953125 2.390625 -1.734375 C 2.585938 -1.515625 2.820312 -1.347656 3.09375 -1.234375 C 3.363281 -1.117188 3.648438 -1.0625 3.953125 -1.0625 C 4.140625 -1.0625 4.304688 -1.070312 4.453125 -1.09375 C 4.597656 -1.113281 4.734375 -1.144531 4.859375 -1.1875 C 4.984375 -1.226562 5.101562 -1.28125 5.21875 -1.34375 C 5.332031 -1.414062 5.441406 -1.503906 5.546875 -1.609375 C 5.578125 -1.640625 5.609375 -1.660156 5.640625 -1.671875 C 5.679688 -1.691406 5.722656 -1.703125 5.765625 -1.703125 C 5.835938 -1.703125 5.90625 -1.675781 5.96875 -1.625 Z M 6.5 -1.046875 "/></g></g></g><g fill="#ffffff" fill-opacity="1"><g transform="translate(176.888885, 291.276924)"><g><path d="M 4.625 -2.734375 L 3.75 -5.140625 C 3.707031 -5.242188 3.660156 -5.367188 3.609375 -5.515625 C 3.566406 -5.660156 3.519531 -5.816406 3.46875 -5.984375 C 3.425781 -5.816406 3.378906 -5.660156 3.328125 -5.515625 C 3.285156 -5.367188 3.242188 -5.238281 3.203125 -5.125 L 2.328125 -2.734375 Z M 7 0 L 5.953125 0 C 5.835938 0 5.742188 -0.0234375 5.671875 -0.078125 C 5.597656 -0.140625 5.546875 -0.21875 5.515625 -0.3125 L 4.96875 -1.78125 L 1.96875 -1.78125 L 1.4375 -0.3125 C 1.40625 -0.226562 1.351562 -0.15625 1.28125 -0.09375 C 1.207031 -0.03125 1.113281 0 1 0 L -0.0625 0 L 2.796875 -7.234375 L 4.15625 -7.234375 Z M 4.09375 -8.5 C 4.164062 -8.5 4.226562 -8.507812 4.28125 -8.53125 C 4.34375 -8.5625 4.390625 -8.597656 4.421875 -8.640625 C 4.453125 -8.691406 4.476562 -8.742188 4.5 -8.796875 C 4.519531 -8.859375 4.53125 -8.914062 4.53125 -8.96875 L 5.28125 -8.96875 C 5.28125 -8.800781 5.253906 -8.640625 5.203125 -8.484375 C 5.160156 -8.335938 5.09375 -8.203125 5 -8.078125 C 4.914062 -7.960938 4.8125 -7.867188 4.6875 -7.796875 C 4.5625 -7.722656 4.414062 -7.6875 4.25 -7.6875 C 4.070312 -7.6875 3.921875 -7.710938 3.796875 -7.765625 C 3.671875 -7.828125 3.554688 -7.890625 3.453125 -7.953125 C 3.347656 -8.015625 3.253906 -8.070312 3.171875 -8.125 C 3.085938 -8.175781 3 -8.203125 2.90625 -8.203125 C 2.832031 -8.203125 2.769531 -8.1875 2.71875 -8.15625 C 2.664062 -8.125 2.617188 -8.082031 2.578125 -8.03125 C 2.546875 -7.988281 2.519531 -7.9375 2.5 -7.875 C 2.488281 -7.820312 2.484375 -7.769531 2.484375 -7.71875 L 1.71875 -7.71875 C 1.71875 -7.882812 1.738281 -8.046875 1.78125 -8.203125 C 1.832031 -8.359375 1.898438 -8.492188 1.984375 -8.609375 C 2.078125 -8.722656 2.1875 -8.816406 2.3125 -8.890625 C 2.445312 -8.960938 2.597656 -9 2.765625 -9 C 2.929688 -9 3.078125 -8.972656 3.203125 -8.921875 C 3.335938 -8.867188 3.453125 -8.8125 3.546875 -8.75 C 3.648438 -8.6875 3.742188 -8.628906 3.828125 -8.578125 C 3.910156 -8.523438 4 -8.5 4.09375 -8.5 Z M 4.09375 -8.5 "/></g></g></g><g fill="#ffffff" fill-opacity="1"><g transform="translate(185.241143, 291.276924)"><g><path d="M 7.703125 -3.609375 C 7.703125 -3.078125 7.613281 -2.585938 7.4375 -2.140625 C 7.257812 -1.691406 7.007812 -1.300781 6.6875 -0.96875 C 6.375 -0.632812 5.988281 -0.375 5.53125 -0.1875 C 5.082031 -0.0078125 4.585938 0.078125 4.046875 0.078125 C 3.492188 0.078125 2.992188 -0.0078125 2.546875 -0.1875 C 2.097656 -0.375 1.710938 -0.632812 1.390625 -0.96875 C 1.066406 -1.300781 0.816406 -1.691406 0.640625 -2.140625 C 0.460938 -2.585938 0.375 -3.078125 0.375 -3.609375 C 0.375 -4.140625 0.460938 -4.628906 0.640625 -5.078125 C 0.816406 -5.535156 1.066406 -5.925781 1.390625 -6.25 C 1.710938 -6.582031 2.097656 -6.84375 2.546875 -7.03125 C 2.992188 -7.21875 3.492188 -7.3125 4.046875 -7.3125 C 4.410156 -7.3125 4.753906 -7.269531 5.078125 -7.1875 C 5.398438 -7.101562 5.695312 -6.984375 5.96875 -6.828125 C 6.238281 -6.671875 6.476562 -6.476562 6.6875 -6.25 C 6.90625 -6.03125 7.085938 -5.785156 7.234375 -5.515625 C 7.390625 -5.242188 7.503906 -4.945312 7.578125 -4.625 C 7.660156 -4.300781 7.703125 -3.960938 7.703125 -3.609375 Z M 6.328125 -3.609375 C 6.328125 -4.003906 6.269531 -4.359375 6.15625 -4.671875 C 6.050781 -4.992188 5.898438 -5.265625 5.703125 -5.484375 C 5.515625 -5.703125 5.273438 -5.867188 4.984375 -5.984375 C 4.703125 -6.109375 4.390625 -6.171875 4.046875 -6.171875 C 3.691406 -6.171875 3.375 -6.109375 3.09375 -5.984375 C 2.8125 -5.867188 2.566406 -5.703125 2.359375 -5.484375 C 2.160156 -5.265625 2.007812 -4.992188 1.90625 -4.671875 C 1.800781 -4.359375 1.75 -4.003906 1.75 -3.609375 C 1.75 -3.210938 1.800781 -2.859375 1.90625 -2.546875 C 2.007812 -2.234375 2.160156 -1.96875 2.359375 -1.75 C 2.566406 -1.53125 2.8125 -1.359375 3.09375 -1.234375 C 3.375 -1.117188 3.691406 -1.0625 4.046875 -1.0625 C 4.390625 -1.0625 4.703125 -1.117188 4.984375 -1.234375 C 5.273438 -1.359375 5.515625 -1.53125 5.703125 -1.75 C 5.898438 -1.96875 6.050781 -2.234375 6.15625 -2.546875 C 6.269531 -2.859375 6.328125 -3.210938 6.328125 -3.609375 Z M 6.328125 -3.609375 "/></g></g></g><g fill="#ffffff" fill-opacity="1"><g transform="translate(194.727957, 291.276924)"><g/></g></g><g fill="#ffffff" fill-opacity="1"><g transform="translate(198.566992, 291.276924)"><g><path d="M 6.90625 -7.234375 L 6.90625 0 L 5.546875 0 L 5.546875 -3.15625 L 2.15625 -3.15625 L 2.15625 0 L 0.8125 0 L 0.8125 -7.234375 L 2.15625 -7.234375 L 2.15625 -4.125 L 5.546875 -4.125 L 5.546875 -7.234375 Z M 6.90625 -7.234375 "/></g></g></g><g fill="#ffffff" fill-opacity="1"><g transform="translate(207.678949, 291.276924)"><g><path d="M 7.703125 -3.609375 C 7.703125 -3.078125 7.613281 -2.585938 7.4375 -2.140625 C 7.257812 -1.691406 7.007812 -1.300781 6.6875 -0.96875 C 6.375 -0.632812 5.988281 -0.375 5.53125 -0.1875 C 5.082031 -0.0078125 4.585938 0.078125 4.046875 0.078125 C 3.492188 0.078125 2.992188 -0.0078125 2.546875 -0.1875 C 2.097656 -0.375 1.710938 -0.632812 1.390625 -0.96875 C 1.066406 -1.300781 0.816406 -1.691406 0.640625 -2.140625 C 0.460938 -2.585938 0.375 -3.078125 0.375 -3.609375 C 0.375 -4.140625 0.460938 -4.628906 0.640625 -5.078125 C 0.816406 -5.535156 1.066406 -5.925781 1.390625 -6.25 C 1.710938 -6.582031 2.097656 -6.84375 2.546875 -7.03125 C 2.992188 -7.21875 3.492188 -7.3125 4.046875 -7.3125 C 4.410156 -7.3125 4.753906 -7.269531 5.078125 -7.1875 C 5.398438 -7.101562 5.695312 -6.984375 5.96875 -6.828125 C 6.238281 -6.671875 6.476562 -6.476562 6.6875 -6.25 C 6.90625 -6.03125 7.085938 -5.785156 7.234375 -5.515625 C 7.390625 -5.242188 7.503906 -4.945312 7.578125 -4.625 C 7.660156 -4.300781 7.703125 -3.960938 7.703125 -3.609375 Z M 6.328125 -3.609375 C 6.328125 -4.003906 6.269531 -4.359375 6.15625 -4.671875 C 6.050781 -4.992188 5.898438 -5.265625 5.703125 -5.484375 C 5.515625 -5.703125 5.273438 -5.867188 4.984375 -5.984375 C 4.703125 -6.109375 4.390625 -6.171875 4.046875 -6.171875 C 3.691406 -6.171875 3.375 -6.109375 3.09375 -5.984375 C 2.8125 -5.867188 2.566406 -5.703125 2.359375 -5.484375 C 2.160156 -5.265625 2.007812 -4.992188 1.90625 -4.671875 C 1.800781 -4.359375 1.75 -4.003906 1.75 -3.609375 C 1.75 -3.210938 1.800781 -2.859375 1.90625 -2.546875 C 2.007812 -2.234375 2.160156 -1.96875 2.359375 -1.75 C 2.566406 -1.53125 2.8125 -1.359375 3.09375 -1.234375 C 3.375 -1.117188 3.691406 -1.0625 4.046875 -1.0625 C 4.390625 -1.0625 4.703125 -1.117188 4.984375 -1.234375 C 5.273438 -1.359375 5.515625 -1.53125 5.703125 -1.75 C 5.898438 -1.96875 6.050781 -2.234375 6.15625 -2.546875 C 6.269531 -2.859375 6.328125 -3.210938 6.328125 -3.609375 Z M 6.328125 -3.609375 "/></g></g></g><g fill="#ffffff" fill-opacity="1"><g transform="translate(217.165757, 291.276924)"><g><path d="M 4.65625 -5.921875 C 4.613281 -5.847656 4.566406 -5.796875 4.515625 -5.765625 C 4.472656 -5.734375 4.421875 -5.71875 4.359375 -5.71875 C 4.285156 -5.71875 4.207031 -5.742188 4.125 -5.796875 C 4.050781 -5.847656 3.957031 -5.90625 3.84375 -5.96875 C 3.726562 -6.03125 3.59375 -6.085938 3.4375 -6.140625 C 3.289062 -6.191406 3.113281 -6.21875 2.90625 -6.21875 C 2.71875 -6.21875 2.550781 -6.191406 2.40625 -6.140625 C 2.269531 -6.097656 2.15625 -6.035156 2.0625 -5.953125 C 1.96875 -5.878906 1.894531 -5.785156 1.84375 -5.671875 C 1.800781 -5.554688 1.78125 -5.4375 1.78125 -5.3125 C 1.78125 -5.132812 1.828125 -4.988281 1.921875 -4.875 C 2.015625 -4.757812 2.140625 -4.660156 2.296875 -4.578125 C 2.453125 -4.503906 2.628906 -4.4375 2.828125 -4.375 C 3.035156 -4.3125 3.242188 -4.242188 3.453125 -4.171875 C 3.660156 -4.097656 3.863281 -4.015625 4.0625 -3.921875 C 4.257812 -3.828125 4.4375 -3.707031 4.59375 -3.5625 C 4.75 -3.414062 4.875 -3.238281 4.96875 -3.03125 C 5.070312 -2.820312 5.125 -2.566406 5.125 -2.265625 C 5.125 -1.941406 5.066406 -1.632812 4.953125 -1.34375 C 4.835938 -1.0625 4.671875 -0.8125 4.453125 -0.59375 C 4.242188 -0.382812 3.984375 -0.21875 3.671875 -0.09375 C 3.359375 0.0195312 3.003906 0.078125 2.609375 0.078125 C 2.378906 0.078125 2.148438 0.0507812 1.921875 0 C 1.703125 -0.0390625 1.488281 -0.101562 1.28125 -0.1875 C 1.082031 -0.269531 0.890625 -0.367188 0.703125 -0.484375 C 0.523438 -0.597656 0.367188 -0.726562 0.234375 -0.875 L 0.625 -1.515625 C 0.65625 -1.554688 0.695312 -1.59375 0.75 -1.625 C 0.800781 -1.664062 0.859375 -1.6875 0.921875 -1.6875 C 1.003906 -1.6875 1.09375 -1.648438 1.1875 -1.578125 C 1.289062 -1.503906 1.40625 -1.425781 1.53125 -1.34375 C 1.664062 -1.257812 1.820312 -1.179688 2 -1.109375 C 2.1875 -1.046875 2.40625 -1.015625 2.65625 -1.015625 C 3.03125 -1.015625 3.320312 -1.101562 3.53125 -1.28125 C 3.75 -1.46875 3.859375 -1.734375 3.859375 -2.078125 C 3.859375 -2.265625 3.804688 -2.414062 3.703125 -2.53125 C 3.609375 -2.65625 3.484375 -2.757812 3.328125 -2.84375 C 3.171875 -2.925781 2.992188 -2.992188 2.796875 -3.046875 C 2.597656 -3.109375 2.394531 -3.171875 2.1875 -3.234375 C 1.976562 -3.296875 1.773438 -3.375 1.578125 -3.46875 C 1.378906 -3.5625 1.203125 -3.679688 1.046875 -3.828125 C 0.890625 -3.984375 0.765625 -4.171875 0.671875 -4.390625 C 0.578125 -4.617188 0.53125 -4.898438 0.53125 -5.234375 C 0.53125 -5.492188 0.582031 -5.75 0.6875 -6 C 0.789062 -6.25 0.941406 -6.46875 1.140625 -6.65625 C 1.335938 -6.851562 1.582031 -7.007812 1.875 -7.125 C 2.164062 -7.25 2.503906 -7.3125 2.890625 -7.3125 C 3.316406 -7.3125 3.707031 -7.242188 4.0625 -7.109375 C 4.425781 -6.972656 4.734375 -6.785156 4.984375 -6.546875 Z M 4.65625 -5.921875 "/></g></g></g><g fill="#ffffff" fill-opacity="1"><g transform="translate(224.05859, 291.276924)"><g><path d="M 3.15625 -3.59375 C 3.40625 -3.59375 3.617188 -3.625 3.796875 -3.6875 C 3.984375 -3.75 4.132812 -3.835938 4.25 -3.953125 C 4.375 -4.066406 4.46875 -4.207031 4.53125 -4.375 C 4.59375 -4.539062 4.625 -4.722656 4.625 -4.921875 C 4.625 -5.117188 4.59375 -5.296875 4.53125 -5.453125 C 4.46875 -5.609375 4.375 -5.738281 4.25 -5.84375 C 4.132812 -5.957031 3.984375 -6.039062 3.796875 -6.09375 C 3.617188 -6.15625 3.40625 -6.1875 3.15625 -6.1875 L 2.15625 -6.1875 L 2.15625 -3.59375 Z M 3.15625 -7.234375 C 3.632812 -7.234375 4.050781 -7.175781 4.40625 -7.0625 C 4.757812 -6.945312 5.050781 -6.785156 5.28125 -6.578125 C 5.507812 -6.378906 5.679688 -6.140625 5.796875 -5.859375 C 5.910156 -5.578125 5.96875 -5.265625 5.96875 -4.921875 C 5.96875 -4.578125 5.90625 -4.257812 5.78125 -3.96875 C 5.664062 -3.675781 5.492188 -3.421875 5.265625 -3.203125 C 5.035156 -2.992188 4.742188 -2.832031 4.390625 -2.71875 C 4.035156 -2.601562 3.625 -2.546875 3.15625 -2.546875 L 2.15625 -2.546875 L 2.15625 0 L 0.8125 0 L 0.8125 -7.234375 Z M 3.15625 -7.234375 "/></g></g></g><g fill="#ffffff" fill-opacity="1"><g transform="translate(231.656139, 291.276924)"><g><path d="M 2.15625 0 L 0.8125 0 L 0.8125 -7.234375 L 2.15625 -7.234375 Z M 2.15625 0 "/></g></g></g><g fill="#ffffff" fill-opacity="1"><g transform="translate(236.029956, 291.276924)"><g><path d="M 5.859375 -6.125 L 3.671875 -6.125 L 3.671875 0 L 2.328125 0 L 2.328125 -6.125 L 0.15625 -6.125 L 0.15625 -7.234375 L 5.859375 -7.234375 Z M 5.859375 -6.125 "/></g></g></g><g fill="#ffffff" fill-opacity="1"><g transform="translate(243.437579, 291.276924)"><g><path d="M 4.625 -2.734375 L 3.75 -5.140625 C 3.707031 -5.242188 3.660156 -5.367188 3.609375 -5.515625 C 3.566406 -5.660156 3.519531 -5.816406 3.46875 -5.984375 C 3.425781 -5.816406 3.378906 -5.660156 3.328125 -5.515625 C 3.285156 -5.367188 3.242188 -5.238281 3.203125 -5.125 L 2.328125 -2.734375 Z M 7 0 L 5.953125 0 C 5.835938 0 5.742188 -0.0234375 5.671875 -0.078125 C 5.597656 -0.140625 5.546875 -0.21875 5.515625 -0.3125 L 4.96875 -1.78125 L 1.96875 -1.78125 L 1.4375 -0.3125 C 1.40625 -0.226562 1.351562 -0.15625 1.28125 -0.09375 C 1.207031 -0.03125 1.113281 0 1 0 L -0.0625 0 L 2.796875 -7.234375 L 4.15625 -7.234375 Z M 7 0 "/></g></g></g><g fill="#ffffff" fill-opacity="1"><g transform="translate(251.789831, 291.276924)"><g><path d="M 5.046875 -1.109375 L 5.046875 0 L 0.8125 0 L 0.8125 -7.234375 L 2.15625 -7.234375 L 2.15625 -1.109375 Z M 5.046875 -1.109375 "/></g></g></g><g fill="#ffffff" fill-opacity="1"><g transform="translate(258.392774, 291.276924)"><g><path d="M 4.625 -2.734375 L 3.75 -5.140625 C 3.707031 -5.242188 3.660156 -5.367188 3.609375 -5.515625 C 3.566406 -5.660156 3.519531 -5.816406 3.46875 -5.984375 C 3.425781 -5.816406 3.378906 -5.660156 3.328125 -5.515625 C 3.285156 -5.367188 3.242188 -5.238281 3.203125 -5.125 L 2.328125 -2.734375 Z M 7 0 L 5.953125 0 C 5.835938 0 5.742188 -0.0234375 5.671875 -0.078125 C 5.597656 -0.140625 5.546875 -0.21875 5.515625 -0.3125 L 4.96875 -1.78125 L 1.96875 -1.78125 L 1.4375 -0.3125 C 1.40625 -0.226562 1.351562 -0.15625 1.28125 -0.09375 C 1.207031 -0.03125 1.113281 0 1 0 L -0.0625 0 L 2.796875 -7.234375 L 4.15625 -7.234375 Z M 7 0 "/></g></g></g><g fill="#ffffff" fill-opacity="1"><g transform="translate(266.745027, 291.276924)"><g><path d="M 2.984375 -3.796875 C 3.242188 -3.796875 3.46875 -3.828125 3.65625 -3.890625 C 3.84375 -3.953125 3.992188 -4.035156 4.109375 -4.140625 C 4.234375 -4.253906 4.328125 -4.390625 4.390625 -4.546875 C 4.453125 -4.703125 4.484375 -4.867188 4.484375 -5.046875 C 4.484375 -5.410156 4.359375 -5.691406 4.109375 -5.890625 C 3.867188 -6.085938 3.503906 -6.1875 3.015625 -6.1875 L 2.15625 -6.1875 L 2.15625 -3.796875 Z M 6.453125 0 L 5.234375 0 C 5.003906 0 4.835938 -0.0859375 4.734375 -0.265625 L 3.21875 -2.578125 C 3.15625 -2.671875 3.085938 -2.734375 3.015625 -2.765625 C 2.953125 -2.804688 2.851562 -2.828125 2.71875 -2.828125 L 2.15625 -2.828125 L 2.15625 0 L 0.8125 0 L 0.8125 -7.234375 L 3.015625 -7.234375 C 3.503906 -7.234375 3.921875 -7.179688 4.265625 -7.078125 C 4.617188 -6.972656 4.90625 -6.828125 5.125 -6.640625 C 5.351562 -6.460938 5.519531 -6.242188 5.625 -5.984375 C 5.738281 -5.734375 5.796875 -5.457031 5.796875 -5.15625 C 5.796875 -4.90625 5.757812 -4.671875 5.6875 -4.453125 C 5.613281 -4.242188 5.507812 -4.050781 5.375 -3.875 C 5.238281 -3.695312 5.070312 -3.539062 4.875 -3.40625 C 4.675781 -3.269531 4.453125 -3.164062 4.203125 -3.09375 C 4.285156 -3.039062 4.363281 -2.976562 4.4375 -2.90625 C 4.507812 -2.84375 4.578125 -2.765625 4.640625 -2.671875 Z M 6.453125 0 "/></g></g></g></svg>